<?xml version="1.0" encoding="utf-8"?>
<!-- Generator: Adobe Illustrator 18.1.1, SVG Export Plug-In . SVG Version: 6.00 Build 0)  -->
<svg version="1.1" id="Layer_1" xmlns="http://www.w3.org/2000/svg" xmlns:xlink="http://www.w3.org/1999/xlink" x="0px" y="0px"
	 width="320px" height="247.3px" viewBox="0 0 320 247.3" style="enable-background:new 0 0 320 247.3;" xml:space="preserve">
<style type="text/css">
	.st0{fill:#FFFFFF;}
	.st1{fill:#C21F34;}
	.st2{fill:#8DA63C;}
	.st3{fill:none;stroke:#000000;stroke-width:2;stroke-miterlimit:10;}
	.st4{fill:none;stroke:#000000;stroke-width:1.4;stroke-miterlimit:10;}
	.st5{fill:#FAF071;}
	.st6{fill:#F36E32;}
	.st7{fill:#E31B23;}
	.st8{fill:#9BCB3C;}
	.st9{fill:#B880B7;}
	.st10{fill:#3B8DCC;}
	.st11{fill:#794B43;}
	.st12{fill:#FCD0B8;}
	.st13{fill:#003C77;}
	.st14{fill:#2F0557;}
	.st15{fill:#2C272C;}
	.st16{fill:#31333B;}
	.st17{fill:#A61F23;}
	.st18{fill:#ECEDEE;}
	.st19{fill:#B47D57;}
	.st20{fill:#EFCA1D;}
	.st21{fill:#D0DD85;}
	.st22{fill:#8DCBE8;}
	.st23{fill:#FACBCE;}
	.st24{fill:#F8F182;}
	.st25{fill:#EB232F;}
	.st26{fill:#FADB25;}
	.st27{fill:#78A241;}
	.st28{fill:#EC9E81;}
	.st29{fill:#60372E;}
	.st30{fill:#6D4036;}
	.st31{fill:#E4B584;}
	.st32{fill:#026133;}
	.st33{fill:#282C33;}
	.st34{fill:#FBAA1F;}
	.st35{fill:#423C42;}
	.st36{fill:#77473D;}
	.st37{fill:#69489D;}
</style>
<g>
	<rect x="-0.1" y="-0.3" class="st0" width="320.1" height="247.5"/>
	<path class="st1" d="M260.8,14.3c0,0,7.9-0.1,6.2,14c0,0-3,12.6,3.8,13.6c0,0,6.7,1.5,5.4-11.8c0,0-1.3-17,12.7-11.6
		c0,0,3.9,0.8,3.5,18.4l0,40.3c0,0-1.4,17.6-0.3,25.2c0.4,2.5,2.7,4.4,5.2,4c2.1-0.3,4.1-2,4.1-7.8l-4.2-70.5c0,0-1-11.8,6.7-11.9
		c0,0,8.6-0.7,6.8,12.9c0,0-1.6,17.2,3.1,16.5c0,0,4.1,0.7,4.1-5.8c0,0-4.7-21.9,2-25.5H260.8z"/>
	<path class="st1" d="M192.8,0c0,0,5.8-0.1,4.6,10.4c0,0-2.2,9.3,2.8,10c0,0,5,1.1,4-8.7c0,0-0.9-12.6,9.4-8.6c0,0,2.9,0.6,2.6,13.6
		l0,29.8c0,0-1,13-0.2,18.6c0.3,1.9,2,3.3,3.8,3c1.5-0.2,3-1.5,3-5.8l-3.1-52.1c0,0-0.8-8.7,5-8.8c0,0,6.3-0.5,5,9.5
		c0,0-1.2,12.7,2.3,12.2c0,0,3,0.5,3-4.3c0,0-3.5-16.2,1.5-18.8H192.8z"/>
	<path class="st2" d="M191.9,10.4v14.8c0,0-4.1-0.7-5.8,2.2c0,0-0.9,1.2-0.8,6c0,0,0.3,6.2-4.1,6c0,0-3.9,0.2-3.9-5.1
		c0,0,1.1-6.1-3.2-7.2c0,0-5.3-1.8-6.8,3.4l0.1,8.3c0,0-1,5.2-5.5,3c0,0-2-1.8-1.7-6.2c0,0,0.7-9.7-8.1-7.5c0,0-5.3,0.8-4.6,9.3
		l-0.3,8.5c0,0-0.8,4-4.2,2.9c0,0-1.9-0.8-1.9-3.9l-0.2-7.4c0,0-0.4-8.9-8.8-6.8c0,0-4,0.4-4.8,6.7c0,0-0.5,24.1,1,31.8
		c0,0,0.8,9.8-4.2,10c0,0-4.7-0.1-3.9-7.8l0.9-14c0,0,2.3-20-5.3-24.1c0,0-9.8-3.9-13.9,4.6c0,0-2.4,3.9-1.5,14.6c0,0,1,10.6-5,8.8
		c0,0-3.6-1.3-0.9-18.2s0-0.4,0-0.4s-1.3-3.6-4.9-0.3c0,0-0.3,7.6-2.1,8.4c0,0-4.2,3.3-6.7-0.1c-0.8-1.1-1.1-2.4-1-3.7
		c0.4-4.9,1-21.2-9.4-17.7c0,0-5.5,0.8-2.5,23.3c0,0,3.9,17.2,0.2,20.3c0,0-5.1,4.6-8.3-1.5c0,0-2-1.3,1.9-28.4
		c0,0,3.3-20.5-4.3-18.5c0,0-5.6-1.1-3.3,14c0,0,0,8.1-7,4.6c0,0-3.9-1.3-2-12.8c0.4-2.4-0.2-4.8-1.8-6.6c-1.6-1.9-4.4-3.3-8.7-1.3
		c0,0-4.9,2.7-3.1,14c0,0,2.8,16.7-5.6,15.2c0,0-6.1,1-4.7-15.1c0,0,1.5-11.8-10.7-7c0,0-5.8,3.2-1.8,21.6c0,0,4.3,14-4.5,14
		c0,0-5.3,1-4.6-20.8V10.4"/>
	<g>
		<path class="st3" d="M27.6,167.2c0,0-6.1,5.6-14.5,2.6c-5.1-1.8-9-6.1-10.4-11.4c-1.9-6.8-1.1-17.5,15.8-26.4
			c2.3-1.2,4.9-1.9,7.5-2.1c5.3-0.3,14.1,0.5,17,8c0,0,3.4,7.8-3.2,11.4c-1,0.6-2.2,0.7-3.4,0.4c-1.1-0.3-2.8,0-3.8,4.1
			c-0.2,0.8-0.4,1.7-0.4,2.5C31.9,158.6,31.1,164.6,27.6,167.2z"/>
		<path class="st4" d="M33.7,145.7c-1.3-0.8-4.8-2.3-10.2,3.2c-1.8,1.8-3.1,4-3.6,6.4c-0.3,1.5-0.5,3.1,0,4.6c0.6,2,2.4,3.4,4.5,3.4
			c1.5,0,3.3-0.8,4.6-3.7c0.3-0.8,0.5-1.7,0.5-2.5c0-2.4,0.5-8.3,4.2-9.6c0.4-0.1,0.6-0.5,0.6-0.9v0C34.2,146.3,34,145.9,33.7,145.7
			z"/>
		<circle class="st5" cx="20.1" cy="138.4" r="4"/>
		<circle class="st6" cx="30.2" cy="136.1" r="4"/>
		<circle class="st7" cx="38" cy="140.2" r="3.1"/>
		<circle class="st8" cx="12.3" cy="145.3" r="3.8"/>
		<circle class="st9" cx="8.5" cy="154.4" r="4.1"/>
		<circle class="st10" cx="12.9" cy="163.1" r="3"/>
	</g>
	<path class="st11" d="M49.2,131.6c0,0-3.6,27.7-13.8,39.4c0,0,38.6,2.3,69.8-3.8c0,0-12.9-15.5-5.7-43.4c0.1-0.6,0.3-1.1,0.5-1.7
		c1.1-3.8,7-29.6-22-29.5C77.5,92.6,55.8,90.9,49.2,131.6z"/>
	<path class="st12" d="M68.8,97.5c-5.8,2.2-14.6,13.6-10.1,27c1.3,3.8,3.8,7.2,7.1,9.6c2.1,1.6,4.8,3.1,7.3,3.5v8.6l4.8-0.6v-8.4
		c0,0,17.3-1.3,20.5-21.8c0.4-2.7,0-5.5-1.2-8C94.3,101,86.5,90.9,68.8,97.5z"/>
	<path d="M92.5,103c1.3,3.1-0.3,6.9-3.7,8.3c-3.4,1.4-7.2,0-8.5-3.1c-1.3-3.1,0.3-6.9,3.7-8.3C87.4,98.4,91.2,99.8,92.5,103z"/>
	<path class="st9" d="M73.1,146.1c0,0-0.4,4.6-4.2,4.6c0,0-24.2,1.2-30.9,0.1c0,0,0.5,4.3-1.3,4.6c0,0,24.1,1.4,30.8-0.9
		c0,0,2.2,2.9-2.7,18c0,0,9.3,6.8,18.3,0l-0.6-19.1c0,0,50-10.2,42.6-56.2l-4.5,1.9c-0.1,0.1,2,11.5-3.7,24
		c-5.3,11.6-17.7,23.1-34.8,26.1c0,0-4-1.2-4.2-3.9L73.1,146.1z"/>
	<path class="st9" d="M64.9,187.7c0,0,2.8,29.4-0.8,34.4c0,0,5.6,2.9,7,0.4c0,0-0.6-34,0.6-35.1C71.7,187.4,69,180.5,64.9,187.7z"/>
	<path class="st9" d="M78.3,186.7c0,0,11.7,7.9,1.5,24.4c0,0,2.4,0.2,3.2,1.3c0.3,0.4,0.9,0.5,1.2,0.1c2.8-3.2,10-13.5-0.3-26.6
		C84,185.9,77.6,182,78.3,186.7z"/>
	<path class="st13" d="M64.1,222.1c0,0-8.9,1.8-6.2,4.8c0.5,0.6,1.3,0.9,2,1c2.6,0.3,9.5,0.7,11.6-3.3c0.5-0.9,0.5-1.7-0.4-2.2
		C71.1,222.4,71.4,224.4,64.1,222.1z"/>
	<path class="st13" d="M80.5,210.8c0,0-3.2,0.9,0.4,7c0.8,1.4,2,2.4,3.5,3c0.4,0.1,0.8,0.2,1.3,0.3c0.8,0,1.4-0.5,1.5-1.3
		c0.1-1.2,0-3.3-2.2-5.3c-0.8-0.7-1.4-1.6-2-2.5C82.7,211.4,82,210.8,80.5,210.8z"/>
	<path class="st7" d="M66.5,119.6c0,0,3.4,7.6,17.3,0.4c0,0-1.2,10.7-10.3,12.4C73.5,132.4,64.2,132.9,66.5,119.6z"/>
	<path class="st12" d="M120.7,99.9c0,0-4.4-1.3-5.7-5.8c-0.1-0.4,0.3-0.7,0.7-0.6c0.9,0.4,2.3,1.3,2.8,3c0,0-1.9-3.8-1.2-5.7
		c0,0,1.1-0.4,2.8,4.2c0,0-1.5-4.1-1.1-5.6c0.1-0.3,0.4-0.4,0.6-0.1c0.6,0.7,1.9,2.7,2.1,5.5c0,0-1.2-5.9,0-6.7c0,0,1.6-0.7,1.6,4
		c0,0-0.1-2.6,1.4-3.6c0.7-0.5,1.8,0,1.9,0.8c0.3,1.7,0.4,4.7-1.4,7.7L120.7,99.9z"/>
	<path class="st12" d="M36.7,155.4c0,0-5,3.5-7,1.3c0,0-0.3-1,3.1-1.3c0,0-3.6,0.7-4.4-0.2c0,0-1-1.2,4.7-1.5c0,0-5.6,0.6-6.2-0.3
		c0,0-1.4-1.4,6.7-1.4c0,0-5.6-0.1-5.2-1.2c0,0,0.3-2.1,5.9,0.1c0,0-2.5-2-1.6-2.2c0,0,0.5-0.9,5.4,2.1
		C38,150.8,38.8,154.2,36.7,155.4z"/>
	<path class="st14" d="M64.7,172.5c0,0-3.4-0.2-3.4,3c0,0-5.9,0.4-3.5,6.4c0,0,1.1,1.5,2.7,1.5c0,0-2.8,2.7,0.5,4.5
		c0,0,2.4,1.2,5.1-1.1c0,0,2,3.7,5.7,0.5c0,0,4.5,3.5,7.1-1.5c0,0,5.2,3.1,6.7-2.7c0,0,5.9,1.3,3.6-4.1c0,0,5.1-4.3-1.5-5.4
		c0,0,0-3.9-5.3-1.2c0,0-2.9-3.1-6.5,1.1C76,173.6,71.3,168.1,64.7,172.5z"/>
	<path class="st15" d="M41.6,151.2l-0.3,4.5l4.6,0.1c0,0,1.3-3.4,0.6-4.5L41.6,151.2z"/>
	<path class="st15" d="M53.7,151.2c0,0,0.8,2.6,0,4.6l4.9-0.1c0,0,1.2-3.6-0.3-4.6L53.7,151.2z"/>
	<path class="st15" d="M63.3,151c0,0,0.9,3.2-0.3,4.4l1.7-0.2l2.7-0.5c0,0,1.6-2.9,1.1-3.9L63.3,151z"/>
	<polygon class="st15" points="82,149.4 82.4,153.5 87,152.3 85.9,148.5 	"/>
	<path class="st15" d="M101.8,141.1l2.9,2.8l4.4-3.2l-3.2-2.9C106,137.8,102.1,140.9,101.8,141.1z"/>
	<path class="st15" d="M110.9,132.7c0,0,3.2,2.3,4.1,2.4c0,0,4-4.9,4.4-5.9c0,0-4.2-2.2-4.5-2.3C115,126.9,111.2,132.7,110.9,132.7z
		"/>
	<path class="st15" d="M118.8,117.8c0,0,4.5,2,4.7,2.5c0,0,2.1-6.1,1.9-6.6c0,0-5-1.6-5.1-1C120.2,112.6,119.2,117.4,118.8,117.8z"
		/>
	<path class="st16" d="M65.4,193.8c0,0,5.5,0.1,5.8-0.5l-0.1,5.3c0,0-5.3,0.6-5.4,0L65.4,193.8z"/>
	<path class="st16" d="M65.9,205c0,0,4.8,0.2,5.1-0.4l0,5.2c0,0-5.1,0.7-5.1,0.2L65.9,205z"/>
	<path class="st16" d="M65.8,214.1c0,0,4.9,0.1,5.2-0.5l0,4.2c0,0-5.6,0.7-5.6,0.2L65.8,214.1z"/>
	<path class="st16" d="M82,190.8c0,0,3.5-2.6,4.4-1.4c0,0,1.2,2,1.6,3.3c0,0-4.3-0.3-4.7,1L82,190.8z"/>
	<path class="st16" d="M83.6,202c0,0,5.2-0.5,5.6-0.3c0,0,0.2-1.1,0.1-3.4c0,0-5-0.6-5.3,0.5C84,198.8,83.8,201.1,83.6,202z"/>
	<path class="st16" d="M81.7,207.8c0,0,4.5,0.7,4.7,2c0,0,1.2-1.9,1.5-2.9c0,0-4.6-2.3-5.1-1.6L81.7,207.8z"/>
	<path class="st15" d="M91.1,146.9c0,0,5.2-2.2,7-3.3c0,0,1.6,3.1,2.3,2.9c0,0-3.6,2.3-7.9,3.9C92.4,150.3,90.7,147.5,91.1,146.9z"
		/>
	<ellipse transform="matrix(0.97 -0.2431 0.2431 0.97 -23.0906 20.1982)" cx="70.3" cy="103.7" rx="7.8" ry="6"/>
	<ellipse class="st0" cx="83.6" cy="102.6" rx="0.6" ry="0.7"/>
	<ellipse transform="matrix(0.9202 -0.3914 0.3914 0.9202 -34.6453 41.2432)" class="st0" cx="83.8" cy="105.6" rx="0.3" ry="0.5"/>
	<ellipse transform="matrix(0.8997 0.4366 -0.4366 0.8997 51.0783 -18.4571)" class="st0" cx="65.7" cy="101.9" rx="0.8" ry="1.3"/>
	<ellipse class="st0" cx="68.1" cy="106.4" rx="0.5" ry="0.3"/>
	<path class="st15" d="M68,157.5c0,0,14-1,14.6,0l0.1,4.6c0,0-14.7-0.9-15.3,0C67.5,162.2,68,158,68,157.5z"/>
	<path class="st15" d="M66.5,166.7c0,0,13.6,0.3,16.4-0.9l0.1,3.9c0,0-16.1,1.1-17.4,0.2L66.5,166.7z"/>
	<g>
		<path class="st17" d="M111.5,105l13.2-11.2l4-3.5c0,0,2.1-1.4,4-4.8l-1.2-1.3c0,0-3.5,2-4.1,2.8L113,102l-3.4,3.9
			C109.6,105.9,108.8,106.9,111.5,105z"/>
		<polygon class="st18" points="132.8,85.6 131.6,84.3 133.5,82.5 134.7,83.8 		"/>
		<path class="st19" d="M134.7,83.8c0,0,2.5-0.2,3-2.6c0,0,1-1.8,1.9-2.1c0,0-5.6-1-6.2,3.4L134.7,83.8z"/>
	</g>
	<g>
		<path class="st10" d="M54.7-0.3h265.2v16.7c0,0,0.7,15.8-0.5,12.3c0,0-3.9,0.2-3.9-5.1c0,0,1.1-6.1-3.2-7.2c0,0-5.3-1.8-6.8,3.4
			l0.1,8.3c0,0-1,5.2-5.5,3c0,0-2-1.8-1.7-6.2c0,0,0.7-9.7-8.1-7.5c0,0-5.3,0.8-4.6,9.3l-0.3,8.5c0,0-0.8,4-4.2,2.9
			c0,0-1.9-0.8-1.9-3.9l-0.2-7.4c0,0-0.4-8.9-8.8-6.8c0,0-4,0.4-4.8,6.7c0,0-0.5,24.1,1,31.8c0,0,0.8,9.8-4.2,10
			c0,0-4.7-0.1-3.9-7.8l0.9-14c0,0,2.3-20-5.3-24.1c0,0-9.8-3.9-13.9,4.6c0,0-2.4,3.9-1.5,14.6c0,0,1.4,9.8-5.1,7.6
			c0,0-3.1-0.1-0.8-17.1c0.4-2.6-1.2-3.2-3.4-2.4c-1.1,0.4-1.5,1.9-1.7,3.1c-0.3,2.1-0.9,6-1.9,7c0,0-4.2,3.3-6.7-0.1
			c-0.8-1.1-1.1-2.4-1-3.7c0.4-4.9,1-21.2-9.4-17.7c0,0-5.5,0.8-2.5,23.3c0,0,2.5,11.2,1.5,17.2c-0.4,2.4-2.4,4.2-4.7,4.2
			c-1.5,0-8.8-0.9-3-31c0,0,3.3-20.5-4.3-18.5c0,0-5.6-1.1-3.3,14c0,0,0,8.1-7,4.6c0,0-3.9-1.3-2-12.8c0.4-2.4-0.2-4.8-1.8-6.6
			c-1.6-1.9-4.4-3.3-8.7-1.3c0,0-4.9,2.7-3.1,14c0,0,2.8,16.7-5.6,15.2c0,0-6.1,1-4.7-15.1c0,0,1.5-11.8-10.7-7
			c0,0-5.8,3.2-1.8,21.6c0,0,4.3,14-4.5,14c0,0-7.2,0-2.4-20.9c0,0,3.7-18.7-7.4-10.9c0,0-1.4,1.2,0.4,13.9c0,0,0,6.5-4.8,5.9
			c0,0-6.6-0.2-2.7-17.5v-25"/>
		<path class="st10" d="M127.2,14.6c0,0-7.4-0.6-9.1,2.2c0,0-0.9,1.2-0.8,6c0,0,0.3,6.2-4.1,6c0,0-3.9,0.2-3.9-5.1
			c0,0,1.1-6.1-3.2-7.2c0,0-5.3-1.8-6.8,3.4l0.1,8.3c0,0-1,5.2-5.5,3c0,0-2-1.8-1.7-6.2c0,0,0.7-9.7-8.1-7.5c0,0-5.2,0.8-4.6,9.3
			l-0.3,8.5c0,0-0.8,4.1-4.2,2.9c0,0-1.9-0.8-1.9-3.9l-0.2-7.4c0,0-0.4-8.9-8.8-6.8c0,0-4,0.4-4.8,6.7c0,0-0.5,24.1,1,31.8
			c0,0,0.8,9.8-4.2,10c0,0-4.7-0.1-3.9-7.8l0.9-14c0,0,2.3-20-5.3-24.1c0,0-9.8-3.9-13.9,4.6c0,0-2.4,3.9-1.5,14.6
			c0,0,1.4,9.8-5.1,7.6c0,0-3.4-0.2-0.8-17.1c0.4-2.3,1.5-5,1.7-6.2c0.3-1.7-0.1-3.5-1.1-5c-1.3-2-4.2-1.6-5.6,10.5
			c0,0-0.3,7.6-2.1,8.4c0,0-5.7,4.6-7.8-2.5c0,0,2.9-23.1-9.2-19c0,0-1.6,0.3-2.6,4.1V-0.3H127L127.2,14.6z"/>
	</g>
	<path class="st20" d="M13.4-0.3c0,0,5.8-0.1,4.6,10.4c0,0-2.2,9.3,2.8,10c0,0,5,1.1,4-8.7c0,0-0.9-12.6,9.4-8.6
		c0,0,2.9,0.6,2.6,13.6l0,29.8c0,0-1,13-0.2,18.6c0.3,1.9,2,3.3,3.8,3c1.5-0.2,3-1.5,3-5.8L40.3,10c0,0-0.8-8.7,5-8.8
		c0,0,6.3-0.5,5,9.5c0,0-1.2,12.7,2.3,12.2c0,0,3,0.5,3-4.3c0,0-3.5-16.2,1.5-18.8H13.4z"/>
	<path class="st21" d="M61.2,57.6c0,0,4.4,9.3,7.1,9.5c0,0-0.7,7.3-4.7,5.9C59.5,71.6,61.2,57.6,61.2,57.6z"/>
	<path class="st22" d="M139.8,36.9c0,0,4.4,9.3,7.1,9.5c0,0-0.7,7.3-4.7,5.9C138.1,51,139.8,36.9,139.8,36.9z"/>
	<path class="st20" d="M125.1-0.3c0,0,3.4,0,2.6,6c0,0-1.3,5.4,1.6,5.8c0,0,2.9,0.6,2.3-5c0,0-0.5-7.2,5.4-4.9c0,0,1.7,0.3,1.5,7.8
		l0,17.1c0,0-0.6,7.5-0.1,10.7c0.2,1.1,1.1,1.9,2.2,1.7c0.9-0.1,1.8-0.9,1.7-3.3l-1.8-29.9c0,0-0.4-5,2.9-5.1c0,0,3.6-0.3,2.9,5.5
		c0,0-0.7,7.3,1.3,7c0,0,1.7,0.3,1.7-2.5c0,0-2-9.3,0.8-10.8H125.1z"/>
	<path class="st22" d="M198.4,46.6c0,0,5.4,9.3,8.1,9.5c0,0-0.7,7.3-4.7,5.9C197.8,60.7,198.4,46.6,198.4,46.6z"/>
	<path class="st22" d="M219.5,23.9c0,0,4.4,9.3,7.1,9.5c0,0-0.7,7.3-4.7,5.9C217.8,38,219.5,23.9,219.5,23.9z"/>
	<path class="st23" d="M216.5,52.6c0,0,3.1,9.1,5.8,9.3c0,0,0.4,6.3-3.7,4.9C214.5,65.5,216.5,52.6,216.5,52.6z"/>
	<path class="st0" d="M140.7,42.6c0,0,0.1,9.1,3.7,7.7C144.4,50.3,140.1,53.9,140.7,42.6z"/>
	<path class="st0" d="M61.7,63.7c0,0,0.1,9.1,3.7,7.7C65.4,71.4,61.1,75,61.7,63.7z"/>
	<path class="st0" d="M220.3,29.9c0,0,0.1,9.1,3.7,7.7C223.9,37.7,219.7,41.2,220.3,29.9z"/>
	<path class="st24" d="M36.8,52.3c0,0,4,8.9,6.1,9c0,0,0.2,7.3-4,6C35.5,66.2,36.8,52.3,36.8,52.3z"/>
	<path class="st0" d="M216.5,57.6c0,0,0.1,9.1,3.7,7.7C220.2,65.4,215.9,68.9,216.5,57.6z"/>
	<path class="st23" d="M267.6,26.8c0,0,4,9.1,7.4,9.3c0,0,0.5,6.3-4.7,4.9S267.6,26.8,267.6,26.8z"/>
	<path class="st0" d="M267.8,31.9c0,0,0.1,9.1,3.7,7.7C271.5,39.6,267.2,43.2,267.8,31.9z"/>
	<g>
		<path class="st2" d="M18.2,213c0,0,1.6,2.1-2.3,3.7c-3.4,1.4-8.9-1.7-11.2,0c0,0-2,1.9-0.3,2.9s8-0.6,8-0.6l8.6-3l-0.2-4.2
			L18.2,213z"/>
		<path class="st2" d="M19.9,211c0,0-7.6-2.8-8,0.4c0,0-0.5,3.2,4,2.3c0,0,4.5-1.6,5.9-1.2V211H19.9z"/>
		<path class="st10" d="M29.1,211.7c0,0-0.5,9.2-2.4,12.3c-0.4,0.7-1.3,1.1-1.8,0.8c-0.5-0.3-1-1-0.5-2.6c0.9-2.8,4-10.1,4-10.1
			L29.1,211.7z"/>
		<path class="st10" d="M38.6,209.6c0,0-4.2,3.2,0.8,5.1c4.8,1.8,12.1,1,14.6,0.6c0.8-0.1,1.6-0.1,2.3,0c1.4,0.2,3.3,0.8,3.2,2.1
			c0,0-0.3,4.3-7.4,2.2c-0.3-0.1-0.6-0.2-0.9-0.2l-8.7-1.7c-1.4-0.3,0,0-4.4-0.9l-6.9-2c-1.3-0.4,1.6-1.4,1.5-2.7
			C32.5,210.7,38.4,207.2,38.6,209.6z"/>
		<path class="st10" d="M32.7,210.1c0,0,9.9-8.1,14.4-8.3c1.1-0.1,2,0.8,2.1,1.8c0.1,1-0.3,2.4-2.3,3.3c-3.5,1.5-13.4,4-13.4,4
			L32.7,210.1z"/>
		<path class="st25" d="M12,203.8c0,0-1.2,2.2,4,3.4c0,0,5.7,2.7,3.4,4.3c-1.6,1.1-0.7,2.4,0,3.1c0.6,0.6,0.4,1.6-0.3,1.8
			c-0.3,0.1-0.8,0.2-1.4,0.1c-2.4-0.4-7.3,3.3-4.8,3.8s6.3-2.9,6.3-2.9s2.6-0.9,0.3,1.1c0,0-3.2,1.9-2.1,3.8
			c1.1,1.9,4.1-2.9,4.1-2.9s2.5-0.3,1,2.2s-4.2,5.6-2.3,7.1c1.9,1.5,4.1-7.5,4.1-7.5s2.1-3.8,3.6,0.3c0,0-1,7.4,1.4,7.9
			c2.4,0.5,0.2-7.8,0.2-7.8s0.6-2.2,2.2-0.6c1.3,1.3,4.2,6.1,5.2,8c0.4,0.7,1.1,1.2,1.9,1.3c0.7,0.1,1.4-0.2,1.5-1.5
			c0.1-2.7-7.3-9.1-7.3-9.1s-1.5-1.3,1.1-1.8c0,0,2,0.9,3.3,2.9c1.3,1.9,4.4,0.3,2.7-1.4c-1.1-1-2.3-1.7-3.1-2.1
			c-0.8-0.4-1.5-1-1.8-1.8c-0.3-0.7-0.3-1.5,0.4-2c0,0,3.6,0.9,3.8-0.6c0.2-1.5-0.4-1.9-2.5-1.5c-2.1,0.4-1-2.4,1.3-2.6
			c2.2-0.2,2.8-3.6-0.5-2.4l-3.3,2.1c0,0-1.8-0.2-0.2-1.8c1.6-1.6,7.3-6.1,4.7-6.9c-2.6-0.8-6.8,6.7-6.8,6.7s-0.9,0.2-0.7-1.1
			c0.1-1.4,1.5-3.9-0.5-2.4c0,0-1.2,3.7-2.6,3c-1.3-0.7-0.5-5.8-0.5-5.8s0.3-6.5-2-5.2c-0.6,0.3-0.9,1-0.9,1.6c0,1.1,0,3.6,0.3,9.1
			c0,0-0.3,3.2-1.5,0.1c-1.2-3.1-2.5-6.2-3.6-5c-1.1,1.2,2.4,6.1,2.4,6.1s0.7,2.4-3.4,0.5C15,205.4,13.8,200.7,12,203.8z"/>
		<path class="st26" d="M26.8,205.9c-0.2,0.8-0.4,2.2,0.3,4.5c0,0-0.1,3.1-2.6,1.2s-3.5,0.1-2.3,0.8c1.2,0.7,2.8,1,2.2,1.6
			c-0.6,0.6-3,1.3-1.5,2.9c0,0,0.6,1,2.8-0.8c0,0,0.7-0.6,1.3,1c0.2,0.7,0.8,1.2,1.5,1.4c0.9,0.2,2.1-0.3,2.9-2.9c0,0,0.8-2.7,1.2-3
			c1.9-1.3,0.5-3.9-3.6-1.2c0,0-0.9,0.1-0.4-1.9c0.4-1.7,0.9-4.8-0.7-4.7C27.4,204.9,27,205.3,26.8,205.9z"/>
	</g>
	<g>
		<path class="st25" d="M91.7,232.9c0,0-0.6-0.8,0.9-1.4c1.3-0.5,3.5,0.7,4.4,0c0,0,0.8-0.7,0.1-1.1c-0.7-0.4-3.1,0.2-3.1,0.2
			l-3.4,1.2l0.1,1.6L91.7,232.9z"/>
		<path class="st25" d="M91,233.7c0,0,3,1.1,3.1-0.1c0,0,0.2-1.3-1.6-0.9c0,0-1.7,0.6-2.3,0.4l0,0.6L91,233.7z"/>
		<path class="st10" d="M87.4,233.4c0,0,0.2-3.6,1-4.8c0.2-0.3,0.5-0.4,0.7-0.3c0.2,0.1,0.4,0.4,0.2,1c-0.3,1.1-1.6,3.9-1.6,3.9
			L87.4,233.4z"/>
		<path class="st10" d="M83.7,234.1c0,0,1.6-1.2-0.3-2c-1.9-0.7-4.7-0.4-5.7-0.3c-0.3,0-0.6,0-0.9,0c-0.5-0.1-1.3-0.3-1.2-0.8
			c0,0,0.1-1.7,2.9-0.8c0.1,0,0.2,0.1,0.4,0.1l3.4,0.7c0.6,0.1,0,0,1.7,0.4l2.7,0.8c0.5,0.1-0.6,0.5-0.6,1.1
			C86.1,233.7,83.8,235.1,83.7,234.1z"/>
		<path class="st10" d="M86,234c0,0-3.9,3.1-5.7,3.2c-0.4,0-0.8-0.3-0.8-0.7c0-0.4,0.1-0.9,0.9-1.3c1.4-0.6,5.2-1.5,5.2-1.5L86,234z
			"/>
		<path class="st26" d="M94.1,236.5c0,0,0.5-0.8-1.6-1.3c0,0-2.2-1.1-1.3-1.7c0.6-0.4,0.3-0.9,0-1.2c-0.2-0.2-0.2-0.6,0.1-0.7
			c0.1,0,0.3-0.1,0.5,0c1,0.2,2.9-1.3,1.9-1.4c-1-0.2-2.5,1.1-2.5,1.1s-1,0.3-0.1-0.4c0,0,1.3-0.7,0.8-1.5s-1.6,1.1-1.6,1.1
			s-1,0.1-0.4-0.9c0.6-1,1.6-2.2,0.9-2.8c-0.7-0.6-1.6,2.9-1.6,2.9s-0.8,1.5-1.4-0.1c0,0,0.4-2.9-0.5-3.1s-0.1,3-0.1,3
			s-0.2,0.8-0.9,0.2c-0.5-0.5-1.6-2.4-2-3.2c-0.1-0.3-0.4-0.5-0.7-0.5c-0.3,0-0.6,0.1-0.6,0.6c-0.1,1,2.8,3.6,2.8,3.6
			s0.6,0.5-0.4,0.7c0,0-0.8-0.4-1.3-1.1c-0.5-0.8-1.7-0.2-1,0.5c0.4,0.4,0.9,0.7,1.2,0.8c0.3,0.1,0.6,0.4,0.7,0.7
			c0.1,0.3,0.1,0.6-0.2,0.8c0,0-1.4-0.4-1.5,0.2c-0.1,0.6,0.1,0.7,1,0.6c0.8-0.1,0.4,0.9-0.5,1s-1.1,1.4,0.2,0.9l1.3-0.8
			c0,0,0.7,0.1,0.1,0.7c-0.6,0.6-2.9,2.4-1.8,2.7c1,0.3,2.7-2.6,2.7-2.6s0.3-0.1,0.3,0.4c0,0.5-0.6,1.5,0.2,0.9c0,0,0.5-1.4,1-1.1
			c0.5,0.3,0.2,2.3,0.2,2.3s-0.2,2.6,0.8,2c0.2-0.1,0.4-0.4,0.4-0.6c0-0.4,0-1.4-0.1-3.6c0,0,0.1-1.2,0.6,0c0.5,1.2,1,2.4,1.4,2
			c0.4-0.5-0.9-2.4-0.9-2.4s-0.3-1,1.3-0.2S93.4,237.7,94.1,236.5z"/>
		<path class="st2" d="M88.3,235.6c0.1-0.3,0.1-0.8-0.1-1.8c0,0,0-1.2,1-0.5c1,0.7,1.4,0,0.9-0.3c-0.5-0.3-1.1-0.4-0.9-0.6
			c0.2-0.2,1.2-0.5,0.6-1.1c0,0-0.2-0.4-1.1,0.3c0,0-0.3,0.2-0.5-0.4c-0.1-0.3-0.3-0.5-0.6-0.5c-0.4-0.1-0.8,0.1-1.1,1.1
			c0,0-0.3,1-0.5,1.1c-0.8,0.5-0.2,1.5,1.4,0.5c0,0,0.3,0,0.1,0.7c-0.2,0.7-0.4,1.9,0.3,1.8C88.1,236,88.2,235.9,88.3,235.6z"/>
	</g>
	<g>
		<path class="st25" d="M194.6,228.3c0,0-0.6-0.8,0.9-1.4c1.3-0.5,3.5,0.7,4.4,0c0,0,0.8-0.7,0.1-1.1c-0.7-0.4-3.1,0.2-3.1,0.2
			l-3.4,1.2l0.1,1.6L194.6,228.3z"/>
		<path class="st25" d="M193.9,229.1c0,0,3,1.1,3.1-0.1c0,0,0.2-1.3-1.6-0.9c0,0-1.7,0.6-2.3,0.4l0,0.6L193.9,229.1z"/>
		<path class="st10" d="M190.3,228.8c0,0,0.2-3.6,1-4.8c0.2-0.3,0.5-0.4,0.7-0.3c0.2,0.1,0.4,0.4,0.2,1c-0.3,1.1-1.6,3.9-1.6,3.9
			L190.3,228.8z"/>
		<path class="st10" d="M186.6,229.5c0,0,1.6-1.2-0.3-2c-1.9-0.7-4.7-0.4-5.7-0.3c-0.3,0-0.6,0-0.9,0c-0.5-0.1-1.3-0.3-1.2-0.8
			c0,0,0.1-1.7,2.9-0.8c0.1,0,0.2,0.1,0.4,0.1l3.4,0.7c0.6,0.1,0,0,1.7,0.4l2.7,0.8c0.5,0.1-0.6,0.5-0.6,1.1
			C189,229.1,186.7,230.5,186.6,229.5z"/>
		<path class="st10" d="M188.9,229.3c0,0-3.9,3.1-5.7,3.2c-0.4,0-0.8-0.3-0.8-0.7c0-0.4,0.1-0.9,0.9-1.3c1.4-0.6,5.2-1.5,5.2-1.5
			L188.9,229.3z"/>
		<path class="st13" d="M197,231.9c0,0,0.5-0.8-1.6-1.3c0,0-2.2-1.1-1.3-1.7c0.6-0.4,0.3-0.9,0-1.2c-0.2-0.2-0.2-0.6,0.1-0.7
			c0.1,0,0.3-0.1,0.5,0c1,0.2,2.9-1.3,1.9-1.4c-1-0.2-2.5,1.1-2.5,1.1s-1,0.3-0.1-0.4c0,0,1.3-0.7,0.8-1.5c-0.4-0.7-1.6,1.1-1.6,1.1
			s-1,0.1-0.4-0.9s1.6-2.2,0.9-2.8c-0.7-0.6-1.6,2.9-1.6,2.9s-0.8,1.5-1.4-0.1c0,0,0.4-2.9-0.5-3.1c-1-0.2-0.1,3-0.1,3
			s-0.2,0.8-0.9,0.2c-0.5-0.5-1.6-2.4-2-3.2c-0.1-0.3-0.4-0.5-0.7-0.5c-0.3,0-0.6,0.1-0.6,0.6c-0.1,1,2.8,3.6,2.8,3.6
			s0.6,0.5-0.4,0.7c0,0-0.8-0.4-1.3-1.1c-0.5-0.8-1.7-0.2-1,0.5c0.4,0.4,0.9,0.7,1.2,0.8c0.3,0.1,0.6,0.4,0.7,0.7
			c0.1,0.3,0.1,0.6-0.2,0.8c0,0-1.4-0.4-1.5,0.2c-0.1,0.6,0.1,0.7,1,0.6c0.8-0.1,0.4,0.9-0.5,1c-0.9,0.1-1.1,1.4,0.2,0.9l1.3-0.8
			c0,0,0.7,0.1,0.1,0.7c-0.6,0.6-2.9,2.4-1.8,2.7c1,0.3,2.7-2.6,2.7-2.6s0.3-0.1,0.3,0.4c0,0.5-0.6,1.5,0.2,0.9c0,0,0.5-1.4,1-1.1
			c0.5,0.3,0.2,2.3,0.2,2.3s-0.2,2.6,0.8,2c0.2-0.1,0.4-0.4,0.4-0.6c0-0.4,0-1.4-0.1-3.6c0,0,0.1-1.2,0.6,0s1,2.4,1.4,2
			s-0.9-2.4-0.9-2.4s-0.3-1,1.3-0.2C195.8,231.3,196.3,233.1,197,231.9z"/>
		<path class="st27" d="M191.2,231c0.1-0.3,0.1-0.8-0.1-1.8c0,0,0-1.2,1-0.5s1.4,0,0.9-0.3c-0.5-0.3-1.1-0.4-0.9-0.6
			c0.2-0.2,1.2-0.5,0.6-1.1c0,0-0.2-0.4-1.1,0.3c0,0-0.3,0.2-0.5-0.4c-0.1-0.3-0.3-0.5-0.6-0.5c-0.4-0.1-0.8,0.1-1.1,1.1
			c0,0-0.3,1-0.5,1.1c-0.8,0.5-0.2,1.5,1.4,0.5c0,0,0.3,0,0.1,0.7c-0.2,0.7-0.4,1.9,0.3,1.8C191,231.4,191.1,231.2,191.2,231z"/>
	</g>
	<g>
		<path class="st7" d="M299.1,218.4c0,0-1.6,2.1-4.2-1.2c-2.3-2.8-0.8-9-3.1-10.7c0,0-2.4-1.4-2.9,0.6c-0.5,2,2.8,7.5,2.8,7.5
			l5.3,7.5l3.9-1.3L299.1,218.4z"/>
		<path class="st7" d="M301.5,219.5c0,0,0.6-8.1-2.7-7.6c0,0-3.2,0.4-1.1,4.5c0,0,2.7,3.8,2.8,5.4l1.5-0.4L301.5,219.5z"/>
		<path class="st7" d="M303.4,228.6c0,0-9,2.1-12.4,1.1c-0.8-0.2-1.4-0.9-1.2-1.5c0.1-0.6,0.6-1.3,2.4-1.3c3,0,10.9,1,10.9,1
			L303.4,228.6z"/>
		<path class="st6" d="M306.2,209.9c0,0-2.4-0.5-2.1,4.8c0,0-1,6.2-3.2,4.4c-1.5-1.3-2.5,0-2.9,0.9c-0.4,0.7-1.4,0.9-1.8,0.2
			c-0.2-0.3-0.4-0.7-0.4-1.3c-0.3-2.5-5.2-6.1-5-3.6c0.2,2.5,4.5,5.2,4.5,5.2s1.6,2.2-0.9,0.6c0,0-2.7-2.5-4.2-1
			c-1.5,1.6,3.9,3.1,3.9,3.1s1,2.3-1.9,1.6s-6.6-2.4-7.5-0.2s8.4,1.8,8.4,1.8s4.2,0.9,0.7,3.5c0,0-7.4,1.1-7.1,3.6
			c0.2,2.5,7.5-2,7.5-2s2.2-0.1,1.2,2c-0.9,1.6-4.7,5.7-6.3,7.3c-0.5,0.6-0.8,1.4-0.7,2.1c0.1,0.7,0.6,1.3,1.9,1
			c2.6-0.6,6.6-9.6,6.6-9.6s0.9-1.8,2,0.5c0,0-0.3,2.2-1.8,4c-1.5,1.8,0.9,4.4,2.1,2.2c0.7-1.3,1-2.7,1.1-3.5
			c0.1-0.9,0.5-1.7,1.2-2.2c0.6-0.5,1.3-0.7,2-0.2c0,0,0.1,3.7,1.6,3.5s1.7-0.9,0.7-2.8c-1-1.9,2-1.6,2.9,0.5s4.3,1.7,2.2-1.1
			l-2.9-2.6c0,0-0.3-1.8,1.7-0.7c2,1.1,7.9,5.3,8,2.5c0-2.7-8.3-4.6-8.3-4.6s-0.5-0.8,0.9-1c1.3-0.3,4.2,0.3,2.2-1.1
			c0,0-3.9-0.2-3.6-1.6s5.4-2.1,5.4-2.1s6.4-1.5,4.4-3.4c-0.5-0.5-1.2-0.6-1.8-0.4c-1.1,0.3-3.5,1-8.7,2.8c0,0-3.2,0.6-0.5-1.4
			s5.3-4.1,3.8-4.8c-1.4-0.7-5.2,4.1-5.2,4.1s-2.2,1.3-1.4-3.2C305.5,213.3,309.7,210.8,306.2,209.9z"/>
		<path class="st26" d="M308.3,224.8c-0.8,0-2.2,0.3-4.2,1.6c0,0-3,0.8-1.9-2.1s-1-3.3-1.4-2c-0.4,1.3-0.2,3-0.9,2.6
			c-0.7-0.4-2.1-2.5-3.2-0.6c0,0-0.8,0.8,1.5,2.5c0,0,0.8,0.5-0.6,1.5c-0.6,0.4-1,1.1-0.9,1.9c0.1,0.9,0.8,1.9,3.6,2
			c0,0,2.8,0,3.2,0.3c1.7,1.5,3.8-0.6,0.1-3.8c0,0-0.3-0.8,1.7-0.9c1.8-0.1,4.9-0.5,4.3-2C309.4,225.1,308.9,224.8,308.3,224.8z"/>
	</g>
	<g>
		<path class="st3" d="M304.4,136.6c0,0,4.3-2.7,9,0.1c2.9,1.7,4.7,4.7,5,8c0.4,4.3-1.3,10.7-12.5,14.1c-1.5,0.5-3.2,0.6-4.8,0.4
			c-3.2-0.4-8.4-1.9-9.3-6.7c0,0-1.2-5.1,3.2-6.5c0.7-0.2,1.4-0.2,2.1,0.1c0.6,0.3,1.7,0.3,2.8-2c0.2-0.5,0.4-1,0.5-1.5
			C300.8,141.3,302,137.8,304.4,136.6z"/>
		<path class="st4" d="M298.2,148.9c0.7,0.7,2.6,1.9,6.5-0.8c1.3-0.9,2.3-2.1,2.9-3.5c0.4-0.8,0.6-1.8,0.5-2.8
			c-0.1-1.3-1.1-2.3-2.3-2.5c-0.9-0.1-2.1,0.1-3.2,1.7c-0.3,0.4-0.5,0.9-0.6,1.5c-0.3,1.5-1.2,5-3.6,5.3c-0.2,0-0.4,0.2-0.5,0.5l0,0
			C298,148.4,298.1,148.7,298.2,148.9z"/>
		<circle class="st5" cx="305.6" cy="154.8" r="2.5"/>
		<circle class="st6" cx="299.3" cy="155" r="2.5"/>
		<circle class="st7" cx="295.1" cy="151.7" r="1.9"/>
		<circle class="st8" cx="311.1" cy="151.5" r="2.3"/>
		<circle class="st9" cx="314.4" cy="146.4" r="2.5"/>
		<circle class="st10" cx="312.7" cy="140.8" r="1.9"/>
	</g>
	<g>
		<path class="st25" d="M248.6,235.6c0,0-0.5-0.6,0.7-1.1c1-0.4,2.6,0.5,3.3,0c0,0,0.6-0.6,0.1-0.9c-0.5-0.3-2.3,0.1-2.3,0.1
			l-2.5,0.9l0,1.2L248.6,235.6z"/>
		<path class="st25" d="M248.1,236.2c0,0,2.2,0.9,2.3-0.1c0,0,0.1-0.9-1.2-0.7c0,0-1.3,0.4-1.7,0.3l0,0.5L248.1,236.2z"/>
		<path class="st10" d="M245.4,236c0,0,0.2-2.7,0.7-3.6c0.1-0.2,0.4-0.3,0.5-0.2c0.2,0.1,0.3,0.3,0.2,0.8c-0.3,0.8-1.2,3-1.2,3
			L245.4,236z"/>
		<path class="st10" d="M242.6,236.6c0,0,1.2-0.9-0.2-1.5c-1.4-0.5-3.5-0.3-4.3-0.2c-0.2,0-0.5,0-0.7,0c-0.4-0.1-0.9-0.2-0.9-0.6
			c0,0,0.1-1.3,2.2-0.6c0.1,0,0.2,0.1,0.3,0.1l2.5,0.5c0.4,0.1,0,0,1.3,0.3l2,0.6c0.4,0.1-0.5,0.4-0.4,0.8
			C244.4,236.2,242.6,237.2,242.6,236.6z"/>
		<path class="st10" d="M244.3,236.4c0,0-2.9,2.3-4.2,2.4c-0.3,0-0.6-0.2-0.6-0.5c0-0.3,0.1-0.7,0.7-1c1-0.4,3.9-1.1,3.9-1.1
			L244.3,236.4z"/>
		<path class="st26" d="M250.4,238.3c0,0,0.4-0.6-1.2-1c0,0-1.7-0.8-1-1.3c0.5-0.3,0.2-0.7,0-0.9c-0.2-0.2-0.1-0.5,0.1-0.5
			c0.1,0,0.2,0,0.4,0c0.7,0.1,2.1-0.9,1.4-1.1c-0.7-0.1-1.8,0.8-1.8,0.8s-0.8,0.3-0.1-0.3c0,0,0.9-0.6,0.6-1.1
			c-0.3-0.6-1.2,0.8-1.2,0.8s-0.7,0.1-0.3-0.7s1.2-1.6,0.7-2.1c-0.5-0.4-1.2,2.2-1.2,2.2s-0.6,1.1-1-0.1c0,0,0.3-2.2-0.4-2.3
			c-0.7-0.1-0.1,2.3-0.1,2.3s-0.2,0.6-0.7,0.2c-0.4-0.4-1.2-1.8-1.5-2.4c-0.1-0.2-0.3-0.4-0.5-0.4c-0.2,0-0.4,0-0.4,0.4
			c0,0.8,2.1,2.7,2.1,2.7s0.4,0.4-0.3,0.5c0,0-0.6-0.3-1-0.8c-0.4-0.6-1.3-0.1-0.8,0.4c0.3,0.3,0.7,0.5,0.9,0.6
			c0.2,0.1,0.4,0.3,0.5,0.5c0.1,0.2,0.1,0.4-0.1,0.6c0,0-1-0.3-1.1,0.2c-0.1,0.4,0.1,0.6,0.7,0.4c0.6-0.1,0.3,0.7-0.4,0.8
			s-0.8,1.1,0.1,0.7l1-0.6c0,0,0.5,0.1,0,0.5c-0.5,0.5-2.2,1.8-1.4,2c0.8,0.2,2-1.9,2-1.9s0.3-0.1,0.2,0.3c0,0.4-0.4,1.1,0.1,0.7
			c0,0,0.4-1.1,0.8-0.9c0.4,0.2,0.1,1.7,0.1,1.7s-0.1,1.9,0.6,1.5c0.2-0.1,0.3-0.3,0.3-0.5c0-0.3,0-1.1-0.1-2.7c0,0,0.1-0.9,0.5,0
			s0.7,1.8,1,1.5c0.3-0.3-0.7-1.8-0.7-1.8s-0.2-0.7,1-0.1C249.5,237.9,249.8,239.2,250.4,238.3z"/>
		<path class="st2" d="M246,237.7c0.1-0.2,0.1-0.6-0.1-1.3c0,0,0-0.9,0.8-0.3c0.7,0.6,1,0,0.7-0.2c-0.3-0.2-0.8-0.3-0.6-0.5
			s0.9-0.4,0.4-0.8c0,0-0.2-0.3-0.8,0.2c0,0-0.2,0.2-0.4-0.3c-0.1-0.2-0.2-0.4-0.4-0.4c-0.3-0.1-0.6,0.1-0.9,0.9
			c0,0-0.2,0.8-0.4,0.9c-0.6,0.4-0.1,1.1,1.1,0.4c0,0,0.3,0,0.1,0.5c-0.1,0.5-0.3,1.4,0.2,1.4C245.8,238,246,237.8,246,237.7z"/>
	</g>
	<g>
		<path class="st7" d="M160.7,208.5c0,0-0.8,1-2-0.6c-1.1-1.4-0.4-4.4-1.5-5.2c0,0-1.2-0.7-1.4,0.3c-0.2,1,1.4,3.6,1.4,3.6l2.6,3.6
			l1.9-0.7L160.7,208.5z"/>
		<path class="st7" d="M161.9,209c0,0,0.3-3.9-1.3-3.7c0,0-1.6,0.2-0.5,2.2c0,0,1.3,1.9,1.3,2.6l0.7-0.2L161.9,209z"/>
		<path class="st7" d="M162.8,213.4c0,0-4.4,1-6,0.5c-0.4-0.1-0.7-0.5-0.6-0.7c0.1-0.3,0.3-0.6,1.1-0.6c1.4,0,5.3,0.5,5.3,0.5
			L162.8,213.4z"/>
		<path class="st6" d="M164.2,204.3c0,0-1.2-0.3-1,2.3c0,0-0.5,3-1.6,2.2c-0.7-0.6-1.2,0-1.4,0.4c-0.2,0.3-0.7,0.4-0.9,0.1
			c-0.1-0.1-0.2-0.3-0.2-0.6c-0.1-1.2-2.5-3-2.4-1.7c0.1,1.2,2.2,2.5,2.2,2.5s0.8,1.1-0.5,0.3c0,0-1.3-1.2-2.1-0.5
			c-0.7,0.8,1.9,1.5,1.9,1.5s0.5,1.1-0.9,0.8c-1.4-0.4-3.2-1.2-3.6-0.1c-0.4,1.1,4.1,0.9,4.1,0.9s2,0.5,0.3,1.7c0,0-3.6,0.5-3.5,1.7
			c0.1,1.2,3.7-1,3.7-1s1.1,0,0.6,1c-0.4,0.8-2.3,2.8-3,3.5c-0.3,0.3-0.4,0.7-0.3,1c0.1,0.3,0.3,0.6,0.9,0.5
			c1.3-0.3,3.2-4.7,3.2-4.7s0.4-0.9,1,0.3c0,0-0.2,1.1-0.9,1.9s0.4,2.1,1,1.1c0.3-0.6,0.5-1.3,0.5-1.7c0.1-0.4,0.3-0.8,0.6-1.1
			c0.3-0.2,0.6-0.4,1-0.1c0,0,0.1,1.8,0.8,1.7c0.7-0.1,0.8-0.4,0.3-1.4c-0.5-0.9,1-0.8,1.4,0.2c0.4,1,2.1,0.8,1.1-0.5l-1.4-1.3
			c0,0-0.1-0.9,0.8-0.3c1,0.5,3.9,2.6,3.9,1.2c0-1.3-4-2.2-4-2.2s-0.2-0.4,0.4-0.5c0.7-0.1,2,0.2,1.1-0.5c0,0-1.9-0.1-1.7-0.8
			c0.2-0.7,2.6-1,2.6-1s3.1-0.7,2.2-1.6c-0.2-0.2-0.6-0.3-0.9-0.2c-0.5,0.1-1.7,0.5-4.2,1.4c0,0-1.5,0.3-0.3-0.7
			c1.3-1,2.6-2,1.8-2.4c-0.7-0.3-2.5,2-2.5,2s-1,0.7-0.7-1.5C163.8,206,165.9,204.8,164.2,204.3z"/>
		<path class="st26" d="M165.2,211.5c-0.4,0-1.1,0.1-2.1,0.8c0,0-1.4,0.4-0.9-1s-0.5-1.6-0.7-1c-0.2,0.6-0.1,1.4-0.5,1.2
			s-1-1.2-1.6-0.3c0,0-0.4,0.4,0.7,1.2c0,0,0.4,0.3-0.3,0.7c-0.3,0.2-0.5,0.5-0.4,0.9c0,0.5,0.4,0.9,1.8,1c0,0,1.4,0,1.5,0.2
			c0.8,0.7,1.9-0.3,0.1-1.9c0,0-0.2-0.4,0.8-0.4c0.9,0,2.4-0.2,2.1-1C165.7,211.7,165.5,211.5,165.2,211.5z"/>
	</g>
	<path class="st2" d="M125.6,233.8c0,0-0.8,1-2.1-0.6c-1.1-1.4-0.4-4.5-1.6-5.4c0,0-1.2-0.7-1.5,0.3c-0.3,1,1.4,3.7,1.4,3.7l2.7,3.7
		l2-0.7L125.6,233.8z"/>
	<path class="st2" d="M126.8,234.3c0,0,0.3-4.1-1.3-3.8c0,0-1.6,0.2-0.5,2.2c0,0,1.4,1.9,1.4,2.7l0.8-0.2L126.8,234.3z"/>
	<path class="st2" d="M127.8,238.9c0,0-4.5,1-6.2,0.5c-0.4-0.1-0.7-0.5-0.6-0.8c0.1-0.3,0.3-0.6,1.2-0.6c1.5,0,5.4,0.5,5.4,0.5
		L127.8,238.9z"/>
	<path class="st9" d="M129.2,229.5c0,0-1.2-0.3-1.1,2.4c0,0-0.5,3.1-1.6,2.2c-0.8-0.6-1.3,0-1.5,0.4c-0.2,0.4-0.7,0.4-0.9,0.1
		c-0.1-0.1-0.2-0.4-0.2-0.7c-0.2-1.2-2.6-3-2.5-1.8s2.3,2.6,2.3,2.6s0.8,1.1-0.5,0.3c0,0-1.4-1.3-2.1-0.5c-0.8,0.8,2,1.6,2,1.6
		s0.5,1.2-0.9,0.8c-1.4-0.4-3.3-1.2-3.7-0.1c-0.4,1.1,4.2,0.9,4.2,0.9s2.1,0.5,0.3,1.8c0,0-3.7,0.5-3.6,1.8c0.1,1.2,3.8-1,3.8-1
		s1.1,0,0.6,1c-0.4,0.8-2.4,2.9-3.1,3.7c-0.3,0.3-0.4,0.7-0.4,1.1c0.1,0.4,0.3,0.7,0.9,0.5c1.3-0.3,3.3-4.8,3.3-4.8s0.4-0.9,1,0.3
		c0,0-0.2,1.1-0.9,2c-0.7,0.9,0.5,2.2,1,1.1c0.4-0.7,0.5-1.3,0.6-1.8c0.1-0.4,0.3-0.8,0.6-1.1c0.3-0.2,0.7-0.4,1-0.1
		c0,0,0.1,1.9,0.8,1.8c0.7-0.1,0.8-0.5,0.4-1.4c-0.5-1,1-0.8,1.4,0.2c0.4,1,2.2,0.9,1.1-0.6L130,241c0,0-0.1-0.9,0.9-0.3
		c1,0.5,4,2.6,4,1.3s-4.2-2.3-4.2-2.3s-0.2-0.4,0.4-0.5c0.7-0.1,2.1,0.2,1.1-0.6c0,0-1.9-0.1-1.8-0.8c0.2-0.7,2.7-1,2.7-1
		s3.2-0.8,2.2-1.7c-0.2-0.2-0.6-0.3-0.9-0.2c-0.5,0.1-1.7,0.5-4.3,1.4c0,0-1.6,0.3-0.3-0.7s2.6-2.1,1.9-2.4c-0.7-0.4-2.6,2-2.6,2
		s-1.1,0.7-0.7-1.6C128.8,231.2,130.9,230,129.2,229.5z"/>
	<path class="st7" d="M130.3,237c-0.4,0-1.1,0.1-2.1,0.8c0,0-1.5,0.4-0.9-1.1c0.6-1.4-0.5-1.7-0.7-1c-0.2,0.7-0.1,1.5-0.5,1.3
		c-0.4-0.2-1.1-1.2-1.6-0.3c0,0-0.4,0.4,0.8,1.2c0,0,0.4,0.3-0.3,0.8c-0.3,0.2-0.5,0.6-0.4,0.9c0,0.5,0.4,1,1.8,1c0,0,1.4,0,1.6,0.2
		c0.9,0.7,1.9-0.3,0.1-1.9c0,0-0.2-0.4,0.8-0.4c0.9,0,2.5-0.3,2.2-1C130.8,237.1,130.5,237,130.3,237z"/>
	<path class="st0" d="M140.7,42.6c0,0,0.1,9.1,3.7,7.7C144.4,50.3,140.1,53.9,140.7,42.6z"/>
	<path class="st28" d="M239.1,100.4c0,0-0.7-6.5,0.9-6.5c0,0,0.6,0.2,0.1,3.5c0,0,0.5-3.2,1.3-4c0.2-0.2,0.5,0,0.5,0.2
		c0,0.6,0,2.3-0.7,3.9c0,0,2.2-4,2.5-2.3c0,0-0.8,2.1-1.8,2.7c0,0,2.5-1.3,2.4-0.4c0,0-1.2,1.4-2.4,2c0,0,1.7-1,2.1-0.5
		c0.3,0.5-2.7,2.2-2.7,2.2L239.1,100.4z"/>
	<path class="st12" d="M239.2,100.4c0,0-20.4,35.8,17.2,46.2c0,0,1.9,4.4,1.7,18.1c0,0,8.1,1.8,10.6-1.3c0,0,3-15.3,1.7-17.2
		c0,0,21.7-1.2,31.3-3.1v-3.2c0,0-36.5,3.2-36.8,2.9c-0.3-0.3,2-9.2,0.9-10.8c0,0-3.8,0.4-4.4,0.3c0,0,0.5,7-0.7,9.6
		c0,0-33-5.4-19.4-40.7L239.2,100.4z"/>
	<path class="st12" d="M255.5,173.5c0,0-21,7.4-5.5,44.4c0,0,1.5-1.7,5.5,0.3c0,0-1.3-4.1-3.2-9c0,0-8.4-24.1,6.4-34.4
		C258.8,174.7,256.2,174.8,255.5,173.5z"/>
	<path class="st12" d="M263.6,172.8c0,0-4.2,28.2-2,41.2c0,0,3.7-0.7,3.9,1c0,0,0-37.9,2.8-43C268.3,171.9,267.2,173.6,263.6,172.8z
		"/>
	<path class="st29" d="M261.6,214c0,0-3.7,6-0.5,9.1c0.3,0.3,0.7,0.4,1.1,0.3c1.2-0.4,3.8-2,3.3-8.4
		C265.5,214.9,264.5,212.8,261.6,214z"/>
	<path class="st29" d="M249.7,217c0,0-5.4,0.2-5.6,3.6c0,0.4,0.2,0.8,0.5,1c1.3,0.8,4.7,2.4,8.6,0.4c1.1-0.6,1.9-1.5,2.3-2.7
		C255.9,217.9,255.4,216.1,249.7,217z"/>
	<path class="st1" d="M236.2,107.3c0,0,2.3-1,3.1,0.6l1.5-5.2c0,0-2-1.7-2.6-0.3L236.2,107.3z"/>
	<path class="st1" d="M233.9,117.1c0,0,2.5-1.2,4.1-0.8c0,0-0.1,5.1,1.1,8.1c0,0-3.4-0.5-5,1.3C234.1,125.7,233.2,117.4,233.9,117.1
		z"/>
	<path class="st1" d="M235.6,130.9c0,0,4.8-3.1,5.1-2.6c0,0,2.8,5.2,5.2,6.5c0,0-2.7,4.1-4.1,4.6
		C241.8,139.4,236.9,135.3,235.6,130.9z"/>
	<path class="st1" d="M247.9,143.4c0,0,2.6-4.3,2.6-5.3c0,0,4.8,2.7,5.4,2.5c0,0-0.6,4.7-2.1,5.2L247.9,143.4z"/>
	<path class="st1" d="M256.7,147.4c0,0,11.4-0.4,13.7-1.1c0,0,0.4,2.3,0.2,4.7c0,0-11.4,1.7-13.1,0.6
		C257.5,151.5,257.3,147.7,256.7,147.4z"/>
	<path class="st1" d="M257.9,155.8c0,0,9.4,0.2,12.2-0.9l-0.8,5.1c0,0-10.7,1.1-11.2,0.2L257.9,155.8z"/>
	<path class="st1" d="M274.4,142.2l0.4,3.7l4.9-0.2c0,0-1-3.2-0.7-3.9L274.4,142.2z"/>
	<path class="st1" d="M283.7,141.4c0,0-0.3,3.4,0.5,3.8l4.1-0.5c0,0-0.9-3.1-0.3-3.7L283.7,141.4z"/>
	<path class="st1" d="M246.3,207.3c0,0,3.5,0.3,5.2-1l1.3,4.5c0,0-3.5,2.4-5,1.3L246.3,207.3z"/>
	<path class="st1" d="M244.5,197.6c0,0,3.9-1.1,5.6,0c0,0,0.1,4.2,0.5,4.4c0,0-4.5,1.4-5.3,1.2L244.5,197.6z"/>
	<path class="st1" d="M245.2,186.6c0,0,2.6,0.9,5.7,0c0,0-1.4,5.1-0.9,6.3l-5.7-0.7L245.2,186.6z"/>
	<path class="st1" d="M248.3,179.6l4.2,2.5c0,0,1.9-3.2,2.4-3.8l-3.7-2.1L248.3,179.6z"/>
	<path class="st1" d="M263.2,175.3h4.1c0,0-0.7,5.4-0.7,6h-4.1C262.5,181.3,263.5,175.7,263.2,175.3z"/>
	<path class="st1" d="M262,185.8c0,0,4.1-0.8,4.3-0.3l-0.4,7c0,0-4.5,0.2-4.6,1L262,185.8z"/>
	<path class="st1" d="M261.1,197.7c0,0,4-1.2,4.7-0.4l-0.1,5.5c0,0-3.6,0.4-4.7,0.9L261.1,197.7z"/>
	<path class="st1" d="M261,207.2l4.6-0.9l-0.1,5.2c0,0-4.2,0.7-4.3,0L261,207.2z"/>
	<path class="st28" d="M301.6,139.8c0,0,1.6-2.7,4.8-1.9c0,0,0.3,1.1-2.8,1.6c0,0,2.3-0.1,3.6,0.1c0.4,0.1,0.4,0.6,0.1,0.7
		c-0.6,0.3-1.8,0.6-3.7,0.4c0.4,0,5.5,0.7,2.6,1.5c0,0-1.1,0.3-2.4-0.3c0.6,0.1,4.9,2.3,0.6,1.6l-0.6-0.2c0,0,2.2,2-0.2,1.7
		c0,0-2.3-0.8-2.6-1.7L301.6,139.8z"/>
	<path d="M238.2,121.2c0,0,5.4,1.1,10.1-0.9c0,0,2.2-20.2,20.2-21c0,0,23.6,3.1,11.6,18.8c0,0,7.8,5.4,13,1.8
		c-1.2-0.2,11.1-30.9-28.7-25.9c-6,0.8-11.8,3-16.6,6.9C242.7,105,238,111.4,238.2,121.2z"/>
	<path class="st28" d="M247.6,121c0,0,9.3,22.4,29.9,4.4c3.9-3.4,6.6-8.1,7.4-13.2c1-6.7-1.2-14.6-17.6-12.8
		C239.5,102.4,247.6,121,247.6,121z"/>
	<ellipse cx="259.7" cy="109.1" rx="5.9" ry="5.2"/>
	<path d="M270.4,106.4c-2.7,2.3-3.5,5.9-1.8,8c1.8,2.1,5.4,1.9,8.2-0.4c2.7-2.3,3.5-5.9,1.8-8C276.8,103.9,273.2,104.1,270.4,106.4z
		"/>
	<path class="st7" d="M257.6,119.9c0,0,5.5,6,15.1,0.5c0,0-0.5,7.9-8.8,8.4c-3.7,0.2-7-2.6-7-6.3
		C256.9,121.6,257.1,120.7,257.6,119.9z"/>
	<ellipse class="st0" cx="262.7" cy="108.8" rx="0.6" ry="0.7"/>
	<ellipse class="st0" cx="275.5" cy="109.5" rx="0.6" ry="0.7"/>
	<g>
		<path class="st17" d="M232.7,90.9l7.3,6.1l2.3,1.8c0,0,0.9,1,3,1.7l0.6-0.8c0,0-1.4-1.7-1.9-2l-9.4-6.4l-2.4-1.5
			C232.1,89.9,231.5,89.6,232.7,90.9z"/>
		<polygon class="st18" points="245.2,100.5 245.8,99.7 247,100.6 246.4,101.4 		"/>
		<path class="st19" d="M246.4,101.4c0,0,0.3,1.3,1.7,1.4c0,0,1.1,0.3,1.3,0.8c0,0,0-3.1-2.4-3L246.4,101.4z"/>
	</g>
	<path class="st0" d="M200,52.6c0,0,0.1,9.1,3.7,7.7C203.7,60.3,199.4,63.8,200,52.6z"/>
	<path class="st21" d="M121.1,65.6c0,0,3.9,10.8,6.7,8c0,0-1.2,5.5-4.8,4.1C119.4,76.2,121.1,65.6,121.1,65.6z"/>
	<path class="st0" d="M122.1,70.2c0,0-0.6,6.9,2.8,6.2C124.9,76.4,120.7,78.7,122.1,70.2z"/>
	<path class="st24" d="M18.5,7.1c0,0,2.7,10.6,5.8,7.9c0,0-0.7,6.7-4.7,4.2C16.6,17.4,18.5,7.1,18.5,7.1z"/>
	<path class="st0" d="M38.1,58c0,0,0.1,8.8,3,7.4C41.1,65.4,37.6,68.8,38.1,58z"/>
	<path class="st0" d="M18.7,10.4c0,0,0.1,8.8,3,7.4C21.7,17.9,18.2,21.3,18.7,10.4z"/>
	<path class="st30" d="M200.3,139.4c0,0-16.9,4.1-20.8-0.7c0,0,5.7-14.9,8.4-25.1c0,0,4.6-14.6,22.4-12.1c0,0,10.3,1.9,9.9,18.1
		c0,0,0.4,8.5,3.7,19.1c0,0-15.5,2.7-17.9,1.5C203.6,138.9,200.3,139.4,200.3,139.4z"/>
	<path class="st31" d="M200.4,139.9c0,0,2.6,3.2,5.3,1.1l-0.4-6.8c0,0,1.1-2.3,4.3-3c1.1-0.2,2.1-0.6,3-1.2c3.1-2,8.2-7.2,4.6-19.3
		c-0.3-1-0.8-2-1.5-2.8c-2.5-3.1-9.4-9.2-20.6-1.6c-1.2,0.8-2.2,1.9-2.8,3.2c-2.6,5.1-8.6,19.1,2.6,22.7c0,0,5.8,1,5.8,3.2
		L200.4,139.9z"/>
	<ellipse cx="197.9" cy="110.7" rx="5.5" ry="5.9"/>
	<ellipse cx="210.6" cy="111.7" rx="5.8" ry="5.5"/>
	<path class="st7" d="M194.8,121.9c0,0,3.9,3.8,12.2,0.5c0,0-0.1,10.2-9.6,8.7c-1.1-0.2-2.1-0.7-2.7-1.6
		C193.7,128.2,192.9,125.8,194.8,121.9z"/>
	<path class="st27" d="M172.8,147.9h22.7c0,0,5,0.8,4.9-8c0,0,3.5,2.4,5.3,0.8l-0.1,5.9c0,0,15.7,3,31.2-0.4l0.7,2.7
		c0,0-28.4,3.4-30,2.7l-0.9,20.8l-14.7-0.4l2.3-20.3c0,0-20.9-0.4-21.6,0.1V147.9z"/>
	<path class="st27" d="M194,179.7c0,0-27.3,5.8-7.2,33.1c0,0,4,1.3,4.6-1.4c0,0-15.6-14.7,1.9-26.7c2.2-1.5,6.5-1,9-0.4
		c5.7,1.4,13.2,6.7-0.6,27.5c0,0,1.6,3.4,4.9,2.5c0,0,19.7-19.9,1.9-32.5C208.6,181.7,202.9,176.9,194,179.7z"/>
	<path class="st13" d="M186.8,212.8c0,0-0.1,9.5,2.8,12c0,0,4-3.8,1.8-13.4L186.8,212.8z"/>
	<path class="st13" d="M201.7,211.8c0,0-3.3,8.6,0,13c0,0,4.1-2.5,4.9-10.5L201.7,211.8z"/>
	<path class="st31" d="M236.9,146.2c0,0,2.6-5.9,4.2-6.1c0.2,0,0.4,0.2,0.3,0.5c-0.3,0.7-0.9,2.4-1.7,3.4c0,0,2.2-2.6,3-2.1
		c0.1,0.1,0.1,0.2,0.1,0.3c-0.2,0.4-0.9,1.8-2.4,3.3c0,0,2.5-2.1,3.7-2c0.3,0,0.4,0.4,0.2,0.6c-0.7,0.6-2.5,2.2-3.5,2.6
		c0,0,3.1-1,3.7-0.2c0.1,0.1,0.1,0.2,0,0.3c-0.4,0.3-1.5,1.2-4,1.3c0,0,2.1,2,1.2,2.8c0,0-0.4,0.3-0.9,0s-1.7-2.6-3.1-1.9
		L236.9,146.2z"/>
	<path class="st31" d="M172.8,147.9c0,0-4.8-2.6-5.6-1c-0.1,0.2,0.1,0.5,0.2,0.7c0.2,0.3,0.7,0.7,1.9,0.8c0,0-4.7-0.7-4.1,0.9
		c0,0,2.6,0.7,3.8,0.2c0,0-6.1,0.1-4.3,1.3c0,0,3.4,0.5,4.2-0.2c0,0-6,0.7-4.1,2c0,0,3.3,0.3,4.3-0.6c0,0-2.8,1.5-1.4,2.1
		c0,0,4.9-0.4,5.4-2.5L172.8,147.9z"/>
	<path class="st32" d="M189.9,169.8c0,0,2.8-5.5,7.3-1.1c0,0,4.2-3.6,5,1.4c0,0,2.5-3.6,7.4,0.2c0,0,6.1-3.3,4.5,3.1
		c0,0,6.1,3-0.6,4.9c0,0,2,6-5.9,3.8c0,0-3.3,3.8-5,0.5c0,0-3.8,3.8-6.1-0.4c0,0-3,3.3-6.6-2.5c0,0-9.3,2.5-4.8-5.4
		c0,0-2.8-6.3,3.2-5.9C188.2,168.3,189.2,168.3,189.9,169.8z"/>
	<path class="st33" d="M194.4,151.7c0,0,9,1.2,13.2-0.1l-0.2,3.7c0,0-9.7,1.6-13.5,0L194.4,151.7z"/>
	<path class="st33" d="M193.5,160.2c0,0,12.1,0.8,13.9-0.3l-0.2,4.4c0,0-10.6,2.7-14.1-0.2L193.5,160.2z"/>
	<path class="st33" d="M177.1,147.9c0,0,0.2,2.6-0.3,3.7l3.4-0.1c0,0,1.3-2.1,0.3-3.6H177.1z"/>
	<path class="st33" d="M186.1,147.9c0,0,0.4,2.3-0.3,3.7l4.2,0c0,0,1.2-3,0.3-3.7H186.1z"/>
	<path class="st33" d="M184.8,184.4c0,0,3.7,3.6,3.6,4.6c0,0,2.6-2.6,3.1-3c0,0-1.8-4.3-3.3-4.1C188.1,182,185.1,183.8,184.8,184.4z
		"/>
	<path class="st33" d="M180.2,190.5c0,0,4,0.7,5.5,3c0,0-0.9,2.7-0.7,4.9c0,0-4.1-2.9-5.5-2.6C179.4,195.8,179.2,192.5,180.2,190.5z
		"/>
	<path class="st33" d="M181.1,203.2c0,0,3.7-0.4,4.6-0.8c0,0,0.7,2.4,1.5,3.5c0,0-3.1,1.8-4.1,1.4L181.1,203.2z"/>
	<path class="st33" d="M206.2,186c0,0,2-3.7,3.7-3.3l1.8,1.6c0,0-3.5,3.1-3.4,3.9C208.3,188.2,206.8,185.9,206.2,186z"/>
	<path class="st33" d="M209.5,192.7c0,0,4.9-3.4,5.8-2.5c0,0,0.7,2.3,0.7,3.8c0,0-5.9,1.7-7,3.1C209,197.1,209.8,193.3,209.5,192.7z
		"/>
	<path class="st33" d="M208.3,199.3c0,0,5.5,1.9,5.5,4.5l-1.9,3.5c0,0-4.2-4.1-5.3-4C206.7,203.2,208.3,199.9,208.3,199.3z"/>
	<path class="st33" d="M203.3,209.3c0,0,4,3.6,4,4.2l1.5-1.8c0,0-3.3-4.6-4.4-4.2C204.4,207.5,203.4,209.2,203.3,209.3z"/>
	<path class="st33" d="M210.4,147.3c0,0,0.6,3.5,0,4.3l4.9-0.3c0,0,1.3-1.3,0.4-3.5L210.4,147.3z"/>
	<path class="st33" d="M224.1,147.8c0,0,1.1,1.9,0.4,2.6l5.1-0.6c0,0,1-1.7,0-2.4L224.1,147.8z"/>
	
		<ellipse transform="matrix(0.9555 0.2951 -0.2951 0.9555 40.5699 -53.2404)" class="st0" cx="196.7" cy="107.8" rx="0.5" ry="0.6"/>
	<ellipse class="st0" cx="197" cy="112.1" rx="0.4" ry="0.5"/>
	<ellipse class="st0" cx="209.9" cy="108.7" rx="0.5" ry="0.5"/>
	<ellipse class="st0" cx="209.8" cy="111.8" rx="0.4" ry="0.4"/>
	<path class="st34" d="M138.2,95.7c0,0-27.1,15.4-4.8,46.8c0,0,8.2,7,10.8,6.9c0,0,1,18.9-1.3,21.3l12.2,1l1-24.1
		c0,0,32.3-12.9,22.5-46.1h-3c0,0,10.4,27.4-21.4,42.1l0.1-2.8l-5.6,0.1l-0.1,3.6c0,0-15.1,0.9-18.6-24.3c0,0-3.8-12,8.9-21.6
		L138.2,95.7z"/>
	<path class="st6" d="M167.3,134.9l2.8,2.9c0,0,3.7-3.8,3.7-4.3l-3.3-2.2C170.5,131.4,167.9,134.6,167.3,134.9z"/>
	<path class="st6" d="M124.8,123.1c0,0,5.6,0.9,5.8,0.6c0,0,0.9,4.4,1.4,5.4c0,0-5.4,0.9-5.7,0.2
		C126.4,129.4,124.9,123.4,124.8,123.1z"/>
	<path class="st35" d="M138.2,131.3c0,0-5.2,4.6-6.8-3.6c0,0-3.9-4.3,0-6.6c0,0-2.7-3.7-0.1-6.1c0,0-1.3-8.9,3.2-10.7
		c0,0,1.8-6.3,6-4.4c0,0,2.3-6.9,5.6-3.8c0,0,3.1-2.7,4.4-0.7c0,0,1.4-0.4,2.4,1.2c1,1.5,0,0.7,0,0.7s1.8-3.6,3.8-1
		c0,0,2.7-0.7,3.1,1c0,0,5.2-1.4,7,2.7c0,0,3.8,1.2,1.8,3.8c0,0,4.4-1.9,2,1.5c0,0,1.6,1.7,0.7,2.9c0,0,4.8-1.7,0.3,3.9
		c0,0,3.7,1.2,1.1,7.8c0,0,3.4,2.6-2.1,6.7c0,0,0.1,3.5-3.1,4.7c0,0,1.5,6.3-2.8,4.3c0,0-1.3-2.1,0.2-3.8
		C165,131.8,141.4,122.1,138.2,131.3z"/>
	<path class="st36" d="M170.7,118.1c0,9.8-7.3,17.9-16.8,18.9v3.7l-5.1,0V137c-9-1.5-15.8-9.3-15.8-18.8c0-10.5,8.4-19.1,18.8-19.1
		C162.3,99.1,170.7,107.6,170.7,118.1z"/>
	<ellipse cx="144.8" cy="108.1" rx="6.9" ry="6.3"/>
	<ellipse cx="159.4" cy="109.6" rx="6.5" ry="7"/>
	<path class="st7" d="M142.6,121.9c0,0,9,3.6,15.7,0.5c0,0-0.1,9.6-8.2,8.9c-0.2,0-0.4,0-0.7-0.1
		C141.4,129.4,142.6,121.9,142.6,121.9z"/>
	<path class="st34" d="M152.5,181.4v32.4c0,0,3.9,2.7,6.7-1.3l-2.1-33.4C157.1,179.2,152.5,174.3,152.5,181.4z"/>
	<path class="st34" d="M140.6,181.3c0,0-2.3,28.5-3.6,33.9c0,0,3,2.3,7.6,0c0,0,0.4-30.3,1.8-33
		C146.4,182.2,143.8,167.8,140.6,181.3z"/>
	<path class="st6" d="M141.8,165.4c0,0-4.7-1.7-3.3,3.9c0,0-5.1-3.2-5.2,4.2c0,0.9,0.3,1.8,0.8,2.5c0.3,0.3,0.7,0.6,1.2,0.6
		c0,0-2.9,0-1.6,2.9c0.8,1.9,2.6,3.1,4.5,3.1c1.4,0,3.1-0.5,4.7-2.2c0,0,3.1,8.1,9.7,0.6c0,0,5.3,6.9,6.2-2.2c0,0,9.1,3,4.8-5.1
		c0,0,7-3.4-0.2-5.9c0,0,3.5-9.8-8.3,0.4c0,0-1.8-8.1-6.5-0.4C148.5,168,146.5,158.9,141.8,165.4z"/>
	<path class="st1" d="M255.2,161.9c0,0-4.1-1.4-2.9,3.4c0,0-4.3-2.7-4.4,3.6c0,0.8,0.2,1.6,0.7,2.1c0.3,0.3,0.6,0.5,1,0.6
		c0,0-2.5,0-1.4,2.5c0.7,1.7,2.3,2.7,3.9,2.7c1.2,0,2.7-0.5,4-1.9c0,0,2.7,6.9,8.3,0.6c0,0,4.5,5.9,5.3-1.9c0,0,7.8,2.6,4.1-4.4
		c0,0,6-2.9-0.2-5c0,0,3-8.4-7.1,0.4c0,0-1.6-7-5.6-0.4C261,164.1,259.2,156.2,255.2,161.9z"/>
	<path class="st6" d="M144.2,149.4c0,0,10.7-0.4,11.6,1.2v3.9l-11.6-0.9V149.4z"/>
	<path class="st6" d="M130.5,138.2l4.1-3.2c0,0,1.8,3.6,4.2,5.4c0,0-3.7,3.6-3.5,3.8C135.3,144.1,133.7,143.2,130.5,138.2z"/>
	<path class="st6" d="M140.3,185.3c0,0,5.3-0.4,5.6,0l-0.3,3.9c0,0-5.6,0-5.6,0.3L140.3,185.3z"/>
	<path class="st6" d="M139.3,196.7c0,0,4.9-1.4,5.9-0.1l-0.1,2.9c0,0-6.2,0.5-6.2,1.4L139.3,196.7z"/>
	<path class="st6" d="M138.1,207.7c0,0,5.9-1.3,6.7-0.3l-0.1,3.1l-7,0.8L138.1,207.7z"/>
	<path class="st6" d="M152.5,185.1c0,0,3.4-1.5,5-0.4l0.2,3c0,0-3.9-0.9-5.1,0.9V185.1z"/>
	<path class="st6" d="M152.5,195.5c0,0,3.7-1.9,5.6-0.9l0.2,3.2c0,0-5.8,0.1-5.9,1V195.5z"/>
	<path class="st6" d="M152.5,207.1c0,0,5.2-3.2,6.2-2l0.2,3.4c0,0-1.9-0.9-6.4,2.2V207.1z"/>
	<path class="st37" d="M137.6,215.6c0,0-0.3,7.8,3.1,8.8c0.6,0.2,1.2-0.1,1.4-0.6c1-1.8,3.2-6.3,1.9-8.6
		C144.1,215.2,139.8,212.4,137.6,215.6z"/>
	<path class="st37" d="M152.9,214.4c0,0-0.2,5.3,1.6,8.8c0.5,0.9,1.7,1,2.3,0.2c1.1-1.4,2.3-4.5,1.9-10.7
		C158.8,212.7,152.1,211.7,152.9,214.4z"/>
	<path class="st36" d="M137.8,95.6c0,0,0.2-3.5,1.5-4.1c0.2-0.1,0.5,0,0.6,0.3c0.1,0.6,0.2,1.8-0.4,3.6c0,0,0.4-3.5,2.8-4.3
		c0.3-0.1,0.5,0.1,0.5,0.4c0,0.7-0.4,1.9-2.3,3.8c0,0,3.1-2.2,4-1.6c0,0,0.9,1-3.1,3c0,0,4.3-0.3,2.5,0.7l-3.2,0.8
		c0,0,1.6,0.8,1.2,1.9c0,0-0.7,1.3-3.3-1.3L137.8,95.6z"/>
	<path class="st6" d="M144.4,158.4c0,0,10.5,0,11.2,0.8l-0.2,3.9l-11-0.9V158.4z"/>
	<path class="st6" d="M124.8,114.5c0,0,4.7,1.4,4.7,1c0,0,0.1-4.3,1.1-6.1l-3.6-1.2C127,108.2,124.5,113.7,124.8,114.5z"/>
	<path class="st6" d="M129.7,103.6c0,0,2.4,2.5,2.4,2.5c0-0.1,0,0.1,0,0.1s2.4-4,3.4-4.6c0,0,0.6-0.6,0.6-0.6
		c0.9-0.3-2.5-1.7-2.5-1.7L129.7,103.6z"/>
	<path class="st6" d="M157.7,141.9l2.6,3.6c0,0,4.1-2.7,4.4-2.9c0.2-0.2-2.3-3.6-2.3-3.6S158.2,141.6,157.7,141.9z"/>
	<path class="st6" d="M173.8,126.4c0,0,3.1,1.7,3.2,2.1c0,0,2.1-4.7,2-5c0,0-3.2-1.8-3.5-1C175.5,122.5,174.2,125.9,173.8,126.4z"/>
	<path class="st6" d="M177.1,115.2c0,0,3.1-0.3,3.3,0.3c0,0,0.1-4.8-0.2-5.9c0,0-2.8-0.5-3,0.3C177.2,109.9,177.4,114.2,177.1,115.2
		z"/>
	<path class="st6" d="M175.6,101.5c0,0,2.6,0,3,0c0,0,1,3.6,1,4.1c0,0-2.8,0.2-2.9,0.7C176.7,106.3,176,102,175.6,101.5z"/>
	<path class="st36" d="M175.9,101.9c0,0-5.2-1.2-5-5.4c0-0.2,0.1-0.3,0.3-0.3c0.4,0,1.4,0.4,3.2,3.3c0,0-2.1-5.3-1.4-6
		c0,0,0.6-1.4,2.7,5c0,0-0.8-4.7,0.2-5.2c0,0,0.9-0.8,1.3,4.7c0,0,0.2-4.6,1.5-4.2c0,0,0.9,0.3,0,3.8c0,0,3.2-2.2,2.3,0.2
		c0,0-1.9,0.8-1.8,2.2l-0.4,1.5L175.9,101.9z"/>
	<ellipse class="st0" cx="143.2" cy="105.6" rx="0.7" ry="0.7"/>
	<ellipse class="st0" cx="157.9" cy="107.2" rx="0.5" ry="0.9"/>
</g>
<g>
</g>
<g>
</g>
<g>
</g>
<g>
</g>
<g>
</g>
<g>
</g>
</svg>
