<?xml version="1.0" encoding="utf-8"?>
<!-- Generator: Adobe Illustrator 18.1.1, SVG Export Plug-In . SVG Version: 6.00 Build 0)  -->
<svg version="1.1" id="Layer_1" xmlns="http://www.w3.org/2000/svg" xmlns:xlink="http://www.w3.org/1999/xlink" x="0px" y="0px"
	 width="324px" height="324px" viewBox="0 0 324 324" style="enable-background:new 0 0 324 324;" xml:space="preserve">
<style type="text/css">
	.st0{fill:#FFFFFF;stroke:#662D91;stroke-width:11;stroke-miterlimit:10;}
	.st1{fill:none;stroke:#662D91;stroke-width:6;stroke-linejoin:round;stroke-miterlimit:10;}
	.st2{fill:#FFFFFF;stroke:#2E3192;stroke-width:6;stroke-miterlimit:10;}
	.st3{fill:#FFFFFF;stroke:#2E3192;stroke-width:3;stroke-miterlimit:10;}
	.st4{fill:#FAF071;}
	.st5{fill:#F36E32;}
	.st6{fill:#9BCB3C;}
	.st7{fill:#B880B7;}
	.st8{fill:#3B8DCC;}
	.st9{fill:#BE1E2D;}
	.st10{fill:#C2B59B;}
	.st11{fill:url(#SVGID_1_);}
</style>
<path class="st0" d="M275.5,26.4v269c0,9.3-7.5,16.8-16.8,16.8H63.5c-9.3,0-16.8-7.5-16.8-16.8V43L91.1,9.7h167.7
	C268,9.7,275.5,17.2,275.5,26.4z"/>
<polygon class="st1" points="46.8,43 88.8,43 88.8,9.7 "/>
<path class="st2" d="M222.1,162.3c0,0,25.7,25.3,14.3,62.7c-6.9,22.7-24.9,40.2-47.4,47.5c-29.4,9.5-80.9,11-117.7-63.5
	c-18.8-38.1-11.1-93.6,21-107.6c0,0,33-16.4,50,11.7c2.6,4.3,3.6,9.6,2.6,14.5c-1,4.8,0.7,12.1,18.4,15.9c3.7,0.8,7.4,1.2,11.2,1.4
	C183.8,145.3,210.2,147.8,222.1,162.3z"/>
<path class="st3" d="M127.5,139.9c-3.4,5.6-9.1,21.4,15.8,43.8c8.1,7.3,18,12.5,28.7,14.5c6.4,1.2,13.6,1.5,20.2-0.9
	c8.6-3.1,14.5-11.3,13.8-20.4c-0.5-6.5-4.2-14.2-16.9-19.1c-3.5-1.4-7.3-1.9-11.1-1.8c-10.6,0.4-36.2-0.4-42.4-16.2
	c-0.6-1.6-2.2-2.5-3.9-2.5l-0.1,0C129.9,137.6,128.4,138.5,127.5,139.9z"/>
<circle class="st4" cx="98.7" cy="204.4" r="17.5"/>
<circle class="st5" cx="86.8" cy="159.3" r="17.5"/>
<circle class="st6" cx="130.2" cy="236.9" r="16.4"/>
<circle class="st7" cx="170.5" cy="247.7" r="17.8"/>
<circle class="st8" cx="207" cy="227" r="13.2"/>
<path class="st9" d="M253,81.8l-60.5,64l-18.5,20c0,0-9.7,8.2-17.7,26.5l6.8,5.8c0,0,16.7-12.2,19.3-16.6l64.5-83.4l15.2-21.6
	C262.1,76.6,265.6,71.1,253,81.8z"/>
<polygon class="st10" points="156.3,192.4 163.1,198.2 154.4,208.5 147.4,202.8 "/>
<linearGradient id="SVGID_1_" gradientUnits="userSpaceOnUse" x1="125.1476" y1="216.1032" x2="154.4343" y2="216.1032">
	<stop  offset="0" style="stop-color:#8DC63F"/>
	<stop  offset="0.6289" style="stop-color:#6D6E71"/>
</linearGradient>
<path class="st11" d="M147.4,202.8c0,0-12.4,2.5-13.9,14.9c0,0-3.8,9.7-8.4,11.7c0,0,28.7,1.7,29.3-20.9L147.4,202.8z"/>
<g>
</g>
<g>
</g>
<g>
</g>
<g>
</g>
<g>
</g>
<g>
</g>
</svg>
