<?xml version="1.0" encoding="utf-8"?>
<!-- Generator: Adobe Illustrator 18.1.1, SVG Export Plug-In . SVG Version: 6.00 Build 0)  -->
<svg version="1.1" id="Layer_1" xmlns="http://www.w3.org/2000/svg" xmlns:xlink="http://www.w3.org/1999/xlink" x="0px" y="0px"
	 width="792px" height="272.4px" viewBox="0 0 792 272.4" style="enable-background:new 0 0 792 272.4;" xml:space="preserve">
<style type="text/css">
	.st0{fill:#FFF200;}
	.st1{fill:#BE1E2D;}
	.st2{fill:#F7941E;}
	.st3{fill:#39B54A;}
	.st4{fill:#27AAE1;}
	.st5{fill:#2B3990;}
	.st6{fill:#92278F;}
	.st7{fill:none;}
	.st8{fill:#FFFFFF;}
	.st9{fill:#00A651;}
	.st10{fill:#F15A29;stroke:#F15A29;stroke-miterlimit:10;}
	.st11{fill:#F15A29;stroke:#F15A29;stroke-linejoin:round;stroke-miterlimit:10;}
	.st12{fill:#FBEA03;}
	.st13{fill:#BE232F;}
	.st14{fill:#F69323;}
	.st15{fill:#FAED24;}
	.st16{fill:#3DB349;}
	.st17{fill:#2AA7DF;}
	.st18{fill:#2A3D8F;}
	.st19{fill:#912B8D;}
	.st20{fill:#2AA7DF;stroke:#00AEEF;stroke-linejoin:round;stroke-miterlimit:10;}
	.st21{fill:#EC2227;stroke:#ED1C24;stroke-linejoin:round;stroke-miterlimit:10;}
	.st22{fill:#3C2517;stroke:#00AEEF;stroke-linejoin:round;stroke-miterlimit:10;}
	.st23{fill:#03A550;}
	.st24{fill:#F15B2A;stroke:#F15B2A;stroke-miterlimit:10;}
	.st25{fill:#F15B2A;stroke:#F15B2A;stroke-linejoin:round;stroke-miterlimit:10;}
</style>
<rect x="44.9" y="847.2" class="st0" width="792" height="612"/>
<path class="st1" d="M66.9,1358.9c0,0-5.7-111.3,207.2-177.9c0,0,174.1-51.8,363.5,14.6c0,0,168.4,54.1,177.3,163.3h-9.1
	c0,0-5-35.4-42.4-70.4c0,0-83.1-79.3-210.3-104.7c-2.3-0.5-4.6-0.9-6.8-1.5c-20.3-5-149.3-33.3-281.6,14.3c-1.9,0.7-3.7,1.3-5.6,2
	c-19.1,6.4-153.7,55.2-180.4,160.3H66.9z"/>
<path class="st2" d="M66.9,1366.9c0,0-5.7-111.3,207.2-177.9c0,0,174.1-51.8,363.5,14.6c0,0,168.4,54.1,177.3,163.3h-9.1
	c0,0-5-35.4-42.4-70.4c0,0-83.1-79.3-210.3-104.7c-2.3-0.5-4.6-0.9-6.8-1.5c-20.3-5-149.3-33.3-281.6,14.3c-1.9,0.7-3.7,1.3-5.6,2
	c-19.1,6.4-153.7,55.2-180.4,160.3H66.9z"/>
<path class="st0" d="M66.9,1376.9c0,0-5.7-111.3,207.2-177.9c0,0,174.1-51.8,363.5,14.6c0,0,168.4,54.1,177.3,163.3h-9.1
	c0,0-5-35.4-42.4-70.4c0,0-83.1-79.3-210.3-104.7c-2.3-0.5-4.6-0.9-6.8-1.5c-20.3-5-149.3-33.3-281.6,14.3c-1.9,0.7-3.7,1.3-5.6,2
	c-19.1,6.4-153.7,55.2-180.4,160.3H66.9z"/>
<path class="st3" d="M66.9,1383.5c0,0-5.7-111.3,207.2-177.9c0,0,174.1-51.8,363.5,14.6c0,0,168.4,54.1,177.3,163.3h-9.1
	c0,0-5-35.4-42.4-70.4c0,0-83.1-79.3-210.3-104.7c-2.3-0.5-4.6-0.9-6.8-1.5c-20.3-5-149.3-33.3-281.6,14.3c-1.9,0.7-3.7,1.3-5.6,2
	c-19.1,6.4-153.7,55.2-180.4,160.3H66.9z"/>
<path class="st4" d="M66.9,1390.8c0,0-5.7-111.3,207.2-177.9c0,0,174.1-51.8,363.5,14.6c0,0,168.4,54.1,177.3,163.3h-9.1
	c0,0-5-35.4-42.4-70.4c0,0-83.1-79.3-210.3-104.7c-2.3-0.5-4.6-0.9-6.8-1.5c-20.3-5-149.3-33.3-281.6,14.3c-1.9,0.7-3.7,1.3-5.6,2
	c-19.1,6.4-153.7,55.2-180.4,160.3H66.9z"/>
<path class="st5" d="M66.9,1401.7c0,0-5.7-111.3,207.2-177.9c0,0,152.8-59.8,363.5,14.6c0,0,168.4,54.1,177.3,163.3h-9.1
	c0,0-5-35.4-42.4-70.4c0,0-83.1-79.3-210.3-104.7c-2.3-0.5-4.6-0.9-6.8-1.5c-20.3-5-149.3-33.3-281.6,14.3c-1.9,0.7-3.7,1.3-5.6,2
	c-19.1,6.4-153.7,55.2-180.4,160.3H66.9z"/>
<path class="st6" d="M66.9,1412.6c0,0-5.7-111.3,207.2-177.9c0,0,161.1-60.3,363.5,14.6c0,0,168.4,54.1,177.3,163.3h-9.1
	c0,0-5-35.4-42.4-70.4c0,0-83.1-79.3-210.3-104.7c-2.3-0.5-4.6-0.9-6.8-1.5c-20.3-5-149.3-33.3-281.6,14.3c-1.9,0.7-3.7,1.3-5.6,2
	c-19.1,6.4-153.7,55.2-180.4,160.3H66.9z"/>
<g>
	<path class="st7" d="M71.4,1338.3c0,0-5.7-103.9,204.7-166c0,0,171.9-48.3,359.1,13.6c0,0,166.3,50.5,175.1,152.4h-9
		c0,0-5-33.1-41.9-65.7c0,0-82.1-74-207.7-97.7c-2.3-0.4-4.5-0.9-6.7-1.4c-20-4.6-147.5-31-278.1,13.4c-1.8,0.6-3.7,1.2-5.5,1.8
		c-18.9,6-151.8,51.5-178.2,149.6H71.4z"/>
	<path class="st8" d="M52.6,1234.9c6.7-3.5,10.5-4,12.3-3.2c0.5,0.2,0.9,0.5,1.2,0.8c1.3,1.3,1.4,3.3,0.9,3.7
		c-0.7,0.7-1.3,0.6-3-0.1c-2.5-1.2-6.1-2-11.1-0.3L52.6,1234.9z M60,1248.1c6.8-2.8,10.8-3.3,12.8-1.2c1.3,1.3,1.7,3.3,0.8,4.1
		c-0.5,0.5-1.4,0.4-3.2-0.9c-1.9-1.4-5.7-2.2-10.2-1.3L60,1248.1z M95.5,1195.5c0.4-0.1,0.7,0,0.8,0.1c0.2,0.2,0.1,0.4,0,0.8
		l-0.4,2.3l3.4,3.5c0.6,0.6,3.5,3.1,3.7,3.4c0.9,0.9-0.5,3.2-0.8,3.5c-0.4,0.4-0.5,0.2-1.9-1.2l-21.9,21.4
		c6.4,6.7,14.8,16.4,18.2,21.3c4.8,6.9,7.7,14.1,7.5,23.7l-1.1,0.1c-0.6-7.7-3.3-13.5-8.4-21.4c-2-3.1-10.4-13.1-17-19.9l-7.1-7.3
		c-2.1-2.2-4-4-5.3-5.1l5.6-0.6l20.3-19.8l-0.7-3.8L95.5,1195.5z M69.7,1227l14.9,28.2c1.4,2.6,2.7,4.4,4.8,6.5c2,2,4.6,4.3,8.7,7.8
		c0.2,0.2,0.5,0.4,0.6,0.5c1.7,1.8,1.8,3.6,0.6,4.7c-1,1-2.4,0.7-3.7-0.6c-0.3-0.3-0.5-0.5-0.7-0.8c-3.6-5.3-5.5-7.9-6.8-9.2
		c-0.9-0.9-1.4-1.2-2.1-1.5c-1-0.3-3.5,1.1-7.7,4.2l-0.7-0.8c5.5-5.3,5.9-6,3.1-12.2l-12.1-26.5L69.7,1227z M99.1,1206.6l-6.1-6.3
		l-21.9,21.4l6.1,6.3L99.1,1206.6z M109.5,1206.6c0.6,0,1,0,1.2,0.2c0.2,0.2,0,0.5-0.5,1l-13,12.7c0.9,6.3,1,11.7,0.9,16.8
		l14.3-15.2c-2.8-1-5.9-1.1-10-0.5l0-0.9c5.4-1.9,9.8-2.5,12.8-1.9c1,0.2,1.7,0.6,2.3,1.2c1.1,1.1,1.4,2.7,0.6,3.6
		c-0.6,0.6-1.2,0.6-2.5-0.1c-0.7-0.4-1.4-0.7-2.1-1l-10.7,13.2c-1.4,1.8-3.2,4.5-3.6,5.7c-0.1,0.4-0.3,0.7-0.4,0.8
		c-0.2,0.2-0.5,0.2-1,0l-3.9-1.3c2-2.1,3-4.1,2.3-8.3c-0.9-4.9-1.3-7-2-9.2l-5.9,5.7c-1.1,1.1-2.4,2.8-2.9,3.9l-3.3-0.4
		c1.4-1.1,2.8-2.3,4-3.5l19.1-18.7l-0.5-3.8L109.5,1206.6z M138,1234.2c0.5,0,0.8,0.1,0.9,0.2c0.2,0.2,0,0.4-0.3,0.7l-25.9,25.3
		c-1,1-2.3,2.7-2.8,3.7l-3.2-0.5c1.3-1,2.7-2.2,3.8-3.3l10.7-10.5l-8.8-9l-6.2,6.1c-1.1,1.1-2.4,2.8-2.9,3.9l-3.3-0.4
		c1.4-1.1,2.8-2.3,4-3.5l7.4-7.2c-2.8-2.9-3.6-3.7-6.4-6.2l5.3-2c0.5-0.1,0.8-0.2,0.9-0.1c0.1,0.1,0.1,0.4,0,0.8l-0.5,2.2l3.1,3.1
		l6.5-6.3l-0.6-4.2l5.4-0.1c0.6,0,1,0.1,1.1,0.2c0.2,0.2,0,0.5-0.4,0.9l-10.9,10.7l8.8,9l9-8.8l-0.2-4.7L138,1234.2z"/>
	<path class="st8" d="M198,1199.2c-3.3,1.6-5.3,3.6-5.6,5.5c0,0.3-0.2,0.5-0.4,0.6c-0.2,0.1-0.4,0.2-0.6,0.2
		c-16.4-1.4-28.6-8.1-40-25.4l-1.4,0.8c4,9.6,6.1,17.8,6.2,25.1c7.3-0.9,12.6-1.5,14.7,2.2c1,1.8,0.8,4-0.3,4.6
		c-0.6,0.4-1.3,0.1-2.2-0.8c-2.7-2.6-6.4-4.5-12.2-5c-0.1,11.8-4.9,21.6-12.1,30.6l-0.8-0.6c11.8-20.8,13-33.2,3.6-54.3l-19.4,11
		c-1.3,0.7-3,2-3.8,3.1l-3.1-1.3c1.6-0.8,3.3-1.5,4.7-2.3l20.9-11.9c-2.3-5.2-5.3-11-9.1-17.7l6.8-0.4c0.4,0,0.7,0,0.7,0.2
		c0.1,0.2,0.1,0.4-0.2,0.8l-1.3,2.2c2.4,4.7,4.4,9,6.2,13.1l19.1-10.9l0.9-5.4l5.9,1.6c0.6,0.2,1,0.4,1.1,0.6c0.1,0.3,0,0.5-0.6,0.8
		l-23.3,13.2c12,15.3,27.2,24,45,19L198,1199.2z"/>
	<path class="st8" d="M205.6,1134.9c0.7,0.1,1.1,0.3,1.2,0.5c0.1,0.2-0.1,0.4-0.7,0.7c-1.1,0.6-1.6,1.1-2.2,3.1
		c-0.6,1.9-1.3,3.7-1.9,5.5l5.3,14.2c1.2,3.3,2.2,5.8,3.2,7.8l0.2,0.4c0.4,0.9,0.3,1.5-0.8,2.7c-0.5,0.6-0.9,1-1.3,1.1
		c-0.5,0.2-0.7-0.1-1-1.1l-0.4-1c-1.2-3.9-1.6-5.1-3-8.9l-4-10.6c-2.4,5.8-5,11.1-8,16.3l-1-0.5c4.5-10.1,7.8-19.5,9.6-31.3
		L205.6,1134.9z M257.6,1160.7c0.6,0.2,1,0.5,1.1,0.8c0.1,0.3-0.2,0.6-0.8,0.8l-28,10.5l2.3,6.2c1.4,3.6,2.4,6.5,3.7,9.2l0.2,0.4
		c0.3,0.7,0.2,1.2-0.9,2.5c-0.5,0.7-0.9,1-1.2,1.1c-0.4,0.2-0.7-0.2-1-1.1l-0.4-0.9c-0.8-2.5-2-6-3.6-10.1l-2.3-6.1l-24.3,9.1
		c-1.4,0.5-3.3,1.5-4.2,2.4l-2.8-1.8c1.7-0.5,3.5-1,5-1.6l25.8-9.7l-2-5.3c-0.9-2.4-1.5-3.9-2.5-6.2l5.5,0.5c0.6,0.1,0.9,0.1,1,0.3
		c0.1,0.3-0.1,0.5-1.4,2.7l2.5,6.7l21.2-8l1.2-4.8L257.6,1160.7z M246.6,1137.4c2.9,7.6,3.5,7.7,5.9,8.3c0.3,0.1,0.5,0.2,0.6,0.4
		c0.1,0.1,0,0.3,0,0.5c-0.5,5.3-4.2,6.7-13.3,10.1c-11.1,4.2-12.2,4.1-14.3-1.5l-2.4-6.3c-4.2,4.2-8,7.5-12.6,11l-0.9-0.4
		c4.4-4.3,8.7-8.7,12.6-13.2l-3.9-10.3c-0.7-1.9-2.1-5.3-3.2-7.9l6.2,0.7c0.5,0.1,0.7,0.1,0.7,0.3c0.1,0.1,0,0.3-0.3,0.7l-1.5,1.9
		l4.5,11.9c5.4-6.4,9.7-12.5,11.8-16.8l5,2.3c0.4,0.2,0.6,0.4,0.7,0.5c0.1,0.1,0,0.2-0.3,0.3c-0.2,0.1-1.3,0.3-1.5,0.4
		c-0.8,0.3-1.3,0.8-2.1,1.7c-5,6-9,10.5-12.6,14.3l2.9,7.6c1.1,3,1.3,3.6,11.1-0.1c9.5-3.6,9.8-3.7,6-15.9L246.6,1137.4z"/>
	<path class="st8" d="M621.8,1163c0.3,0.4,0.4,0.7,0.4,0.9c-0.1,0.2-0.3,0.2-0.9,0.1L593,1157c-6,10-15.3,14.7-34.9,14.3l-0.1-0.9
		c16.6-1.9,25.5-4,31.5-14.3l-17.4-4.3c-1.4-0.3-3.5-0.6-4.6-0.4l-1.3-3c1.6,0.6,3.3,1.1,4.8,1.5l19.3,4.7c1.3-2.6,2.6-5.6,3.7-9.2
		l4.1,3.5c0.3,0.3,0.5,0.6,0.4,0.8c0,0.1-0.2,0.3-0.6,0.4c-1.6,0.3-1.8,0.6-2.2,1.5c-0.6,1.3-1.2,2.6-1.9,3.8l21.5,5.3l3.2-2.7
		L621.8,1163z M628,1152.5c0.3,0.4,0.4,0.7,0.3,0.9s-0.3,0.2-0.8,0.1l-56.1-13.8c-1.4-0.3-3.5-0.6-4.6-0.4l-1.3-3
		c1.6,0.6,3.3,1.1,4.8,1.5l25,6.1l2-8.3l-15.6-3.8c-1.4-0.3-3.5-0.6-4.6-0.4l-1.3-3c1.6,0.6,3.3,1.1,4.8,1.5l17.1,4.2l2.2-9
		l-18.9-4.6c-1.5-0.4-3.6-0.6-4.9-0.5l-1.3-3c1.6,0.6,3.4,1.1,5,1.5l28,6.9c3.8-3.3,6.7-6.3,8.8-8.7l3.2,3.5
		c0.4,0.4,0.5,0.6,0.5,0.8c-0.1,0.2-0.4,0.3-0.9,0.3c-1.9,0-4.6,1-10.3,4.4l14.1,3.5l3.2-2.8l3.6,5c0.3,0.4,0.4,0.7,0.4,0.9
		c-0.1,0.2-0.3,0.2-0.9,0.1l-26.3-6.5l-2.2,9l15.2,3.7l3.3-2.8l3,4.8c0.3,0.4,0.4,0.8,0.4,0.9c-0.1,0.3-0.4,0.3-0.9,0.2l-21.3-5.2
		l-2,8.3l22.6,5.5l3.7-2.9L628,1152.5z M589.4,1110.3c4,1.9,7.3,4.2,8.2,6.5c0.3,0.7,0.2,1.4,0.1,2.1c-0.4,1.5-1.6,2.9-2.6,2.6
		c-0.6-0.2-1.1-0.5-1.2-2.3c-0.1-1.9-2-5.8-5-8.4L589.4,1110.3z M622,1181.7c-2.9-0.9-5.2-0.4-7.2,1.4c-0.3,0.3-0.5,0.4-0.8,0.3
		c-0.1,0-0.3-0.1-0.4-0.2c-9.3-6.7-15.1-14.2-17.7-25.5l1.3,0.3c5.3,14.1,13.6,19.3,24.9,23L622,1181.7z"/>
	<path class="st8" d="M692.1,1197.4c-2.9-1-5.2-0.9-7.1,0.2c-0.2,0.1-0.4,0.2-0.6,0.1c-0.1-0.1-0.3-0.2-0.5-0.4
		c-8.3-10.8-11.4-25.2-10.4-39.7l-0.6-0.2l-10.5,26.8c-2.2,5.5-4,10.7-4.8,13.2l-0.1,0.3c-0.4,1.1-1,1.3-2.7,1.3
		c-0.7,0-1.2,0-1.6-0.1c-0.5-0.2-0.5-0.6-0.1-1.5l0.3-0.9c1.7-3.8,4.2-9.9,5.7-13.7l9.8-25.1c-10,8.7-22,17.5-42,22.7l-0.3-1
		c19.4-7.3,30.6-14.9,39.9-24.3l-18.7-7.3c-1.4-0.6-3.5-1-4.8-1l-0.9-3.2c1.6,0.8,3.2,1.6,4.8,2.2l23.1,9l3.6-9.1
		c1.3-3.2,2.7-7.4,3.6-9.9l4.3,4.3c0.3,0.4,0.5,0.6,0.4,0.7c-0.1,0.1-0.3,0.3-0.6,0.4l-2.5,0.6l-5.6,14.2l19.4,7.6l4.6-3.1l3,6.8
		c0.2,0.5,0.3,0.7,0.2,0.9c-0.1,0.1-0.3,0.1-0.8-0.1l-25.2-9.9c0.4,18.5,5.5,30.3,17.7,38.8L692.1,1197.4z M685.2,1144.1
		c8.2,5.5,9.4,9.6,8.5,12c-0.5,1.3-1.6,2.1-2.3,1.8c-0.9-0.3-1.4-1-1.7-3c-0.3-2.1-1.3-6.2-5-10.3L685.2,1144.1z"/>
	<path class="st8" d="M754.9,1225.3c0.3,1,0.4,1.6,0.2,1.9c-0.1,0.2-0.7,0.1-1.5-0.4l-24.2-14.5l-6.8,11.4c-2.3,3.8-4.2,4.4-9,3.6
		c-0.2,0-0.3-0.1-0.4-0.2c-0.2-0.1-0.3-0.3-0.1-0.7c1-2-0.1-4.5-4.5-8.6l0.7-0.9c3.3,2.8,5.3,4.5,6.8,5.4c2.2,1.3,2.9,0.7,3.8-0.8
		l6.6-11.1l-21-12.6c-1.3-0.8-3.2-1.6-4.5-1.8l-0.4-3.3c1.5,1,2.9,2.1,4.4,2.9l22.4,13.4c2.1-3.5,3-5.2,3.7-6.4l2.4,4l11.9-2.9
		l-22.1-13.2c-1.3-0.8-3.2-1.6-4.5-1.8l-0.4-3.3c1.5,1,2.9,2.1,4.4,2.9l23.6,14.1l3.7-0.4l1.3,4.7c0.3,0.8,0.3,1.3,0.2,1.4
		c-0.1,0.2-0.3,0.2-1.2-0.4c-1.6-1-5.7-1.2-16.3-0.1c0,0.2,0,0.4,0,0.4c-0.1,0.2-0.4,0.3-2.2,0l-1.6,2.7l18,10.8l5.1-1.9
		L754.9,1225.3z M768.3,1204.9c0.1,0.3,0.1,0.6,0.1,0.7c-0.1,0.2-0.3,0.1-0.6,0c-2.6-1.2-4.7-0.8-12.4,1.9l-0.6-0.8l7.7-4.8
		l-42.6-25.4c-3.8,6.3-7.7,6.5-9.7,5.3c-0.9-0.6-1.3-1.4-0.8-2.3c0.4-0.7,1.3-1.2,3.2-1.4c3-0.2,5.7-2.3,8.7-6.6l0.9,0.5
		c-0.5,1.1-1,2.2-1.5,3.2l27.1,16.2c7.9-3.5,13.2-6.3,18-9.6l2.5,4.5c0.4,0.7,0.5,1.1,0.4,1.3c-0.1,0.2-0.5,0.2-1.3,0
		c-1.6-0.4-2.3-0.4-5.1,0.5l-13.2,4.2l13.6,8.1l3.7-1.2L768.3,1204.9z M732,1163.4c3.2,5.9,4.5,10.2,3.9,12.4
		c-0.1,0.3-0.2,0.7-0.4,1c-1,1.7-3.1,2.5-3.8,2.1c-0.7-0.4-0.8-1.4-0.1-3.1c1.2-3.1,1.1-7.7-0.6-12L732,1163.4z M747.4,1169.5
		c1.6,5.6,2.2,9.8,1.7,12c-0.1,0.3-0.2,0.6-0.4,0.9c-1,1.7-3.5,2.6-4.6,1.9c-0.6-0.3-0.4-1.4,0.3-2.7c1.4-2.3,2.5-7.9,1.8-12.1
		L747.4,1169.5z"/>
	<path class="st8" d="M801.6,1230.6c0,0.5-0.1,0.8-0.2,0.9c-0.1,0.1-0.3,0-0.7-0.4l-6.5-6.8l-4.3,4.1c2,5.2,2.5,8.5,0.2,10.6
		c-1.1,1.1-2.6,1.4-3.5,0.5c-0.4-0.5-0.5-1,0.2-2.1c0.8-1.3,1.8-5.2,1.7-7.8l-17.4,16.7c-3.9,3.8-7.8,7.5-10.1,9.9l-0.4,0.4
		c-0.7,0.6-1,0.7-2.5,0c-0.7-0.3-1.1-0.5-1.4-0.8c-0.3-0.4-0.2-0.7,0.5-1.4l0.7-0.6c3.2-2.7,8-7.2,11-10l18-17.3
		c-9.1,4.2-16.3,6.6-26.2,7.9l-0.1-1.1c9.5-2,20.9-6.8,30.5-12.3l-3.2-3.4c-1-1.1-2.7-2.4-3.9-2.9l0.5-3.3c1.1,1.4,2.3,2.8,3.4,4
		l5.1,5.3l4.2-4c2.1-2,5.6-5.5,7.4-7.5l2.3,5.5c0.1,0.4,0.2,0.6,0.1,0.7s-0.4,0.1-0.8,0l-2.5-0.4l-8.4,8l2.1,2.2l4.1-0.7
		L801.6,1230.6z M809.2,1264.5c0,0.5,0,0.7-0.1,0.8c-0.1,0.1-0.4,0-0.8-0.3c-1.1-0.8-1.6-1.1-3-0.6c-6,1.9-9.7,2.6-15,2.9
		c-0.2,8.2,2,14.8,7,22.5l-0.7,0.5c-2.3-2.2-4.4-3-6-2.8c-0.5,0-0.7,0-0.9-0.2c-0.3-0.4-2.9-11.4-2.2-19.9c-8.4,0.2-17.4-2.7-27-7.2
		l0.5-1.1c10.4,3.9,19,5.9,26.7,5.5c0.9-5.3,3.2-11.1,7.3-18l1.1,0.7c-3.4,6.4-5.2,13-5.8,17.1c5.7-0.6,11.1-2.2,18.4-5.6
		L809.2,1264.5z M808.6,1243.3c0.1,0.4,0.1,0.7,0,0.8c-0.1,0.1-0.4,0-0.9-0.2c-1.5-0.7-2-0.7-3.8-0.5c-8.8,0.8-16.4,1.3-19.2,1.1
		l-0.1-1c8.2-0.9,16.2-2.9,22.7-5.2L808.6,1243.3z M831,1256.1c0,0.6-0.1,0.9-0.2,1c-0.2,0.1-0.4,0-0.8-0.4l-21.3-22.2
		c-1-1.1-2.7-2.4-3.9-2.9l0.5-3.3c1.1,1.4,2.3,2.8,3.4,4l17.4,18.1l4.8-0.8L831,1256.1z M815.9,1248.9c3,9.7,3.1,13.9,2.3,16.3
		c-0.3,0.8-0.7,1.4-1.2,1.9c-1.5,1.4-3.6,1.8-4.3,1c-0.4-0.5-0.3-1.2,0.3-2.5c2.2-4.4,2.6-12.1,2-16.5L815.9,1248.9z M823.1,1229
		c1.4,4.6,1.6,8,0.7,10c-0.2,0.5-0.6,1-0.9,1.3c-1.5,1.4-3.6,1.4-4.4,0.5c-0.6-0.6-0.5-1.1,0.4-2.2c2.2-2.9,3.4-6.6,3.6-9.5
		L823.1,1229z"/>
</g>
<path class="st9" d="M319.3,1095.1c0,0-10.3-13.2,0.5-24.2c5.1-5.2,12.7-7.6,19.9-6.1c2.2,0.4,4.6,1.2,7,2.4
	c2.6,1.3,5.4,2.2,8.4,2.4c8.7,0.7,25.2,0.3,25.6-12.5c0,0-1.9-5.5-9-0.5c-1.7,1.2-4.2,0.5-4.7-1.5c-0.4-1.8,0.9-4.1,8.1-5.8
	c0,0,11.5-0.8,13.9,9c0.3,1.4,0.4,2.8,0.3,4.2c-0.5,5-3.3,16.5-19.5,15.4c0,0-12.7,1.2-28.3-6.2c-4.1-2-9.1-1.2-13.1,1.1
	c-4.9,2.8-9.2,8.8-5.4,21.4C323,1094,324.6,1100.6,319.3,1095.1z"/>
<path class="st9" d="M291.8,1117.8c4.5,3.2,17.4,11.2,30.6,8.8c4-0.7,7.6-2.8,10.4-5.8c4.1-4.4,14-11.9,31.9-6.6
	c2.3,0.7,4.6,1.1,7,1.1c7.6,0.1,23-1.4,23.2-14.2c0,0,1-8.2-6-13.5c-0.7-0.5-1.3-1.3-1.6-2.1c-0.3-1.1,0-2.4,3.2-1.8
	c4,0.7,7.4,3.2,9.6,6.6c4.1,6.3,8.3,18-6.3,28.6c0,0-11.5,7.7-32.1,0.8c0,0-11.8-3.5-27.6,9.5c-0.9,0.8-1.9,1.4-3,1.9
	c-6,2.8-25.8,9.7-43.4-8c-7.2-7.3-4.8-8.1-1.8-7.7C288.1,1115.7,290.1,1116.5,291.8,1117.8z"/>
<path class="st9" d="M347.9,1099.7c0,0,0.2,43.8-15.2,66.2c-2.8,4.1-7.2,6.8-12.2,7.5c-5.5,0.8-13.1,0.4-19.9-5
	c0,0-11.8-10.6-4-21.4c2.7-3.8,7.1-6.2,11.8-6c3.9,0.2,8,2,7.4,9.4c0,0-3.3,10.5-9.8,4.2c-1.7-1.7-2.3-4.4-1.1-6.4
	c0.9-1.5,2.6-2.7,5.8-1.7c0,0-2.2-3.4-6.6-0.4c-3.9,2.7-5.6,7.8-3.7,12.2c1,2.2,2.8,4.2,6.3,4.7c8.9,1.4,13-9.5,13.1-14.4
	c0.2-5.2-8.4-18.5-27.6-8.3c-20.5,10.9,2.3,44.1,28.8,41.4c4.7-0.5,9.1-2.5,12.5-5.8c7.8-7.6,20.4-26.7,20.2-70.6
	C353.8,1105.3,351.3,1091.7,347.9,1099.7z"/>
<path class="st9" d="M359.2,1138.8c4.4,6.6,29.8,42.4,50.8,34.6c2.9-1.1,5.3-3.3,6.7-6.1c2.4-4.9,5.3-13-2.4-13.5
	c-1.8-0.1-3.6,0.3-5,1.3c-1.6,1.1-2.6,2.6,1.5,3.9c1.6,0.5,2.5,2.3,1.9,3.9c-1.5,4-6.2,9.3-22-0.6c0,0-14.7-9.6-25.4-24.9
	c-1-1.4-2.3-2.6-4-3.1c-1.4-0.5-2.8-0.4-3,1.5C358.2,1136.9,358.6,1137.9,359.2,1138.8z"/>
<path class="st10" d="M499.3,1012.9c0,0,12.2,40.8-27.3,50.8c-4.3,1.1-8.8,0.7-12.7-1.3c-4.4-2.2-9-6.3-8.5-13.5
	c0.4-6.2,5-11.3,11.1-12c3.3-0.4,6.9,0.5,9.5,4.8c0.9,1.5,1.3,3.4,1.1,5.1c-0.4,2.9-1.9,7.1-7.4,6.8c-1.8-0.1-3.4-1.2-3.9-2.9
	c-0.5-1.7-0.1-4,3.7-6.9c6.1-4.7-3.4-2.4-6.8,3.5c-1.5,2.7-1.1,6,0.9,8.4c1.6,1.9,4.4,3.7,9.1,3.9c3.5,0.1,6.8-1.5,8.9-4.2
	c2-2.7,3.9-6.6,2.8-11.2c-1.8-7.8-13.5-17.2-25.6-11.3c-3.4,1.7-5.9,4.7-7.2,8.2c-2.3,6.3-4.1,17.3,6.7,25.1
	c5.7,4.1,12.7,5.6,19.6,4.6c10.8-1.5,27.5-8,33.9-32.8c0,0,4.8-21.6-5.1-31.3C492.1,997.2,499.3,1012.9,499.3,1012.9z"/>
<path class="st10" d="M472.8,1081.7c0,0,6.6-3.2,7.5,10.6c0.1,0.8,0.7,1.4,1.4,1.5c0.9,0,1.9-0.7,2.1-4.1
	C484,1083.5,478.3,1079.1,472.8,1081.7z"/>
<path class="st10" d="M480,1074.5c0,0,6.6-3.2,7.5,10.6c0.1,0.8,0.7,1.4,1.4,1.5c0.9,0,1.9-0.7,2.1-4.1
	C491.2,1076.3,485.5,1071.9,480,1074.5z"/>
<path class="st11" d="M500.6,1071.3c0,0,2.7,8.6,6.5,10.2c3.8,1.6-14.8,16.4-18.3,15.8c-3.6-0.6-0.5,8.5,14.2-4.1
	c14.7-12.5,6.6-17.1,2.3-19C501,1072.4,500.6,1071.3,500.6,1071.3z"/>
<path class="st10" d="M468.1,1108.5c-0.5,0-0.6-0.6-0.1-0.8c10.6-3.2,43.9-12.8,55.8-8.6c0,0,6.5,4.4-28.4,7.2L468.1,1108.5z"/>
<path class="st10" d="M502.7,1095.2c-0.6,0.5-0.9,1.1-1.1,1.8c-1.7,6.8-12.8,51.7-1.6,55c0,0,4.9,2.1,8.2-1.4s-8.2,1.7-9.4-4.9
	c-1.2-6.4,2.7-44,5.7-49.3c0.3-0.5,0.2-1.1-0.3-1.4C503.8,1094.7,503.3,1094.7,502.7,1095.2z"/>
<path class="st11" d="M516.5,1072.7c0,0,27.9-11.2,5.2,23c0,0,21.6-5.1-0.3,20.8c0,0,22-6.5,2.8,21.7c-18.8,27.7-58.4,25.7-81.4,11
	c-1-0.6-1.9-1.4-2.6-2.2c-4.1-4.3-15.4-18.5-6.7-35.5c2.1-4.2,6.4-6.9,11.1-6.5c4.1,0.3,8.7,3,11.4,12.2c0,0,1.4,6.5-2.5,9.2
	c-4,2.8-9.5-1.1-8.3-5.8c0.3-1.4,1.3-2.6,3.4-3.1c2-0.4,1.4-3.4-0.6-3.1c-0.5,0.1-1,0.2-1.7,0.5c-2.5,1.1-4.4,3.4-5.1,6
	c-1.3,4.6-0.4,16.1,12.9,12.9c19.4-4.6,10.1-50.6-23.4-30.4c-33.5,20.2-18.8,67.8,1,49.3c0,0-28,40.7,46.4,21.6c0,0,33.3,42,54-30.5
	c0,0,32.7-33.8,4.3-35.2c0,0,15.1-21.2-1.9-19.6c0,0,16.9-30.6-19.8-25c-2.8,0.4-4.7,3.3-3.8,6
	C511.5,1071.5,513,1072.8,516.5,1072.7z"/>
<path class="st11" d="M496.4,1106.3c0,0-10,27.7-23.3,30.4c-2.1,0.4-1.6,3.6,0.5,3.3c1.2-0.2,2.7-0.7,4.7-1.9
	c8.9-5,20.3-22.4,19.8-25.3l1.3-6.7L496.4,1106.3z"/>
<path class="st11" d="M500.7,1114.9c0,0,12.2,6.3,16.2,5.9S515.7,1113.1,500.7,1114.9z"/>
<rect y="1.1" class="st12" width="792" height="271.3"/>
<g>
	<g>
		<path class="st13" d="M249.5,105.8c0,0-9.8-31,45.4-65.6c0,0,45.4-27.5,103.8-22.7c0,0,51.5,2.8,62.3,33.1l-2.6,0.7
			c0,0-4-9.7-17.2-16.8c0,0-29.4-16.2-67.2-14c-0.7,0-1.3,0.1-2,0.1c-6.1,0.1-44.6,1.6-78.5,24.8c-0.4,0.4-0.9,0.6-1.5,0.9
			c-4.9,3.3-39.3,27-39.2,58.7C252.8,104.9,249.5,105.8,249.5,105.8z"/>
		<path class="st14" d="M250.1,108c0,0-9.8-31,45.4-65.6c0,0,45.4-27.5,103.8-22.7c0,0,51.5,2.8,62.3,33.1l-2.6,0.7
			c0,0-4-9.7-17.2-16.8c0,0-29.4-16.2-67.2-14c-0.7,0-1.3,0.1-2,0.1c-6.1,0.1-44.6,1.6-78.5,24.8c-0.4,0.4-0.9,0.6-1.5,0.9
			c-4.9,3.3-39.3,27-39.2,58.7L250.1,108z"/>
		<path class="st15" d="M250.9,110.9c0,0-9.8-31,45.4-65.6c0,0,45.4-27.5,103.8-22.7c0,0,51.5,2.8,62.3,33.1l-2.6,0.7
			c0,0-4-9.7-17.2-16.8c0,0-29.4-16.2-67.2-14c-0.7,0-1.3,0.1-2,0.1c-6.1,0.1-44.6,1.6-78.5,24.8c-0.4,0.4-0.9,0.6-1.5,0.9
			c-4.9,3.3-39.3,27-39.2,58.7L250.9,110.9z"/>
		<path class="st16" d="M251.4,112.8c0,0-9.8-31,45.4-65.6c0,0,45.4-27.5,103.8-22.7c0,0,51.5,2.8,62.3,33.1l-2.6,0.7
			c0,0-4-9.7-17.2-16.8c0,0-29.4-16.2-67.2-14c-0.7,0-1.3,0.1-2,0.1c-6.1,0.1-44.6,1.6-78.5,24.8c-0.4,0.4-0.9,0.6-1.5,0.9
			c-4.9,3.3-39.3,27-39.2,58.7L251.4,112.8z"/>
		<path class="st17" d="M251.9,114.8c0,0-9.8-31,45.4-65.6c0,0,45.4-27.5,103.8-22.7c0,0,51.5,2.8,62.3,33.1l-2.6,0.7
			c0,0-4-9.7-17.2-16.8c0,0-29.4-16.2-67.2-14c-0.7,0-1.3,0.1-2,0.1c-6.1,0.1-44.6,1.6-78.5,24.8c-0.4,0.4-0.9,0.6-1.5,0.9
			c-4.9,3.3-39.3,27-39.2,58.7C255.1,113.9,251.9,114.8,251.9,114.8z"/>
		<path class="st18" d="M252.7,117.9c0,0-9.8-31,45.4-65.6c0,0,39.6-28.5,103.8-22.7c0,0,51.5,2.8,62.3,33.1l-2.6,0.7
			c0,0-4-9.7-17.2-16.8c0,0-29.4-16.2-67.2-14c-0.7,0-1.3,0.1-2,0.1c-6.1,0.1-44.6,1.6-78.5,24.8c-0.4,0.4-0.9,0.6-1.5,0.9
			c-4.9,3.3-39.3,27-39.2,58.7C256,117.1,252.7,117.9,252.7,117.9z"/>
		<path class="st19" d="M253.5,121.1c0,0-9.8-31,45.4-65.6c0,0,40.9-28.9,103.8-22.7c0,0,51.5,2.8,62.3,33.1l-2.6,0.7
			c0,0-4-9.7-17.2-16.8c0,0-29.4-16.2-67.2-14c-0.7,0-1.3,0.1-2,0.1c-6.1,0.1-44.6,1.6-78.5,24.8c-0.4,0.4-0.9,0.6-1.5,0.9
			c-4.9,3.3-39.3,27-39.2,58.7C256.8,120.2,253.5,121.1,253.5,121.1z"/>
	</g>
	<path class="st8" d="M444.9,65.6c0,0-4.5-16.3,13.5-20.6c0,0,8.1-16.6,21.9-6.8c0,0,9.5-5.4,12.4,2c1.3,3.3,0.2,7-2.2,9.5
		c-0.6,0.7-1.3,1.3-2.1,1.9c0,0,5,17.3-13.1,21.5c0,0-3.2,15.8-19.6,11c0,0-11.9,9.4-11.8-3.9C443.9,80.2,435.6,73.8,444.9,65.6z"/>
	<path class="st20" d="M456.8,71.4c0,0-6.1-10.6,6-10.1C462.8,61.3,452,59.8,456.8,71.4z"/>
	<path class="st20" d="M466.8,56.1c0,0-6.1-10.6,6-10.1C472.8,45.9,462,44.6,466.8,56.1z"/>
	<path class="st21" d="M474,58.7c0,0,5.4,7.7-6.3,8.1C467.7,66.8,478,67.3,474,58.7z"/>
	<path class="st8" d="M234.6,101c0,0,11.6-12.4,24.7,0.8c0,0,18.4-1.7,17.2,15.2c0,0,9.6,5.4,4.8,11.6c-2.2,2.8-5.8,3.8-9.3,3.1
		c-0.8-0.2-1.9-0.5-2.6-0.9c0,0-12.1,13.2-25.1,0c0,0-15.2,5.4-19.6-11.1c0,0-14.2-5.1-2.9-12.1C221.7,107.7,222.8,97.3,234.6,101z"
		/>
	<path class="st22" d="M235.9,114.2c0,0,5.8-10.7,11.7-0.1C247.8,113.9,243.3,103.9,235.9,114.2z"/>
	<path class="st22" d="M254.1,114.6c0,0,5.8-10.7,11.7-0.1C266,114.5,261.5,104.5,254.1,114.6z"/>
	<path class="st21" d="M255.7,122.2c0,0-3.8,8.6-10.2-1.2C245.5,121,250.5,130.1,255.7,122.2z"/>
</g>
<g>
	<path class="st23" d="M291.4,124.9c0,0-7.6-9.9,0.4-18c3.8-3.9,9.4-5.6,14.8-4.6c1.6,0.3,3.4,0.9,5.2,1.8c2,1,4,1.6,6.2,1.8
		c6.5,0.5,18.8,0.2,19.1-9.3c0,0-1.4-4.1-6.7-0.3c-1.3,0.9-3.1,0.4-3.5-1.2c-0.3-1.4,0.7-3,6-4.3c0,0,8.6-0.6,10.4,6.7
		c0.2,1,0.3,2.1,0.2,3.1c-0.3,3.8-2.4,12.3-14.5,11.4c0,0-9.4,0.9-21-4.6c-3.1-1.5-6.8-0.9-9.7,0.8c-3.7,2.1-6.9,6.5-4,15.9
		C294.1,124.1,295.3,129,291.4,124.9z"/>
	<path class="st23" d="M270.9,141.8c3.4,2.4,13,8.4,22.8,6.6c3-0.5,5.7-2.1,7.7-4.3c3-3.3,10.4-8.8,23.7-4.9
		c1.7,0.5,3.4,0.8,5.2,0.8c5.7,0,17.1-1.1,17.3-10.6c0,0,0.7-6.1-4.5-10.1c-0.5-0.4-1-0.9-1.2-1.6c-0.2-0.9,0-1.8,2.4-1.4
		c3,0.5,5.5,2.4,7.2,4.9c3,4.7,6.2,13.4-4.7,21.3c0,0-8.5,5.7-23.9,0.6c0,0-8.8-2.6-20.5,7.1c-0.7,0.6-1.4,1.1-2.2,1.4
		c-4.5,2.1-19.2,7.3-32.3-6c-5.3-5.4-3.6-6.1-1.3-5.7C268.1,140.2,269.6,140.9,270.9,141.8z"/>
	<path class="st23" d="M312.6,128.3c0,0,0.2,32.6-11.3,49.3c-2.1,3-5.4,5.1-9.1,5.6c-4.1,0.6-9.7,0.3-14.8-3.7c0,0-8.8-7.9-3-16
		c2-2.8,5.3-4.6,8.8-4.5c2.9,0.1,6,1.5,5.5,7c0,0-2.5,7.8-7.3,3.1c-1.3-1.3-1.7-3.2-0.8-4.8c0.7-1.1,1.9-2,4.3-1.3
		c0,0-1.7-2.5-4.9-0.3c-2.9,2-4.2,5.8-2.7,9.1c0.7,1.6,2.1,3.1,4.7,3.5c6.6,1,9.7-7.1,9.8-10.7c0.1-3.9-6.3-13.8-20.5-6.2
		c-15.3,8.1,1.7,32.8,21.5,30.9c3.5-0.4,6.8-1.9,9.3-4.3c5.8-5.7,15.1-19.9,15-52.5C317.1,132.5,315.2,122.4,312.6,128.3z"/>
	<path class="st23" d="M316.4,156.2c3.3,4.9,22.2,31.6,37.8,25.7c2.2-0.8,3.9-2.5,5-4.6c1.8-3.6,4-9.7-1.8-10
		c-1.3-0.1-2.7,0.2-3.8,1c-1.2,0.8-1.9,1.9,1.1,2.9c1.2,0.4,1.9,1.7,1.4,2.9c-1.1,3-4.6,7-16.4-0.4c0,0-11-7.2-18.9-18.5
		c-0.7-1.1-1.7-1.9-3-2.3c-1-0.3-2.1-0.3-2.2,1.1C315.7,154.8,316,155.6,316.4,156.2z"/>
</g>
<g>
	<path class="st24" d="M404.9,65.5c0,0,12.2,40.9-27.3,50.9c-4.3,1.1-8.8,0.7-12.8-1.3c-4.4-2.2-9-6.3-8.5-13.5
		c0.4-6.2,5-11.3,11.2-12c3.3-0.4,6.9,0.5,9.5,4.8c0.9,1.5,1.3,3.4,1.1,5.2c-0.4,2.9-1.9,7.1-7.4,6.8c-1.8-0.1-3.4-1.2-3.9-2.9
		c-0.5-1.7-0.1-4,3.7-6.9c6.1-4.7-3.4-2.4-6.9,3.5c-1.6,2.7-1.1,6,0.9,8.4c1.6,1.9,4.4,3.8,9.1,3.9c3.5,0.1,6.8-1.5,8.9-4.2
		c2-2.7,3.9-6.6,2.8-11.3c-1.8-7.8-13.5-17.2-25.6-11.3c-3.4,1.7-6,4.7-7.2,8.2c-2.3,6.3-4.1,17.4,6.7,25.1
		c5.7,4.1,12.8,5.6,19.7,4.6c10.8-1.5,27.6-8,33.9-32.9c0,0,4.8-21.6-5.1-31.3C397.6,49.7,404.9,65.5,404.9,65.5z"/>
	<path class="st24" d="M378.3,134.5c0,0,6.6-3.2,7.5,10.6c0.1,0.8,0.7,1.4,1.4,1.5c0.9,0,1.9-0.7,2.1-4.1
		C389.5,136.2,383.8,131.8,378.3,134.5z"/>
	<path class="st24" d="M385.5,127.3c0,0,6.6-3.2,7.5,10.6c0.1,0.8,0.7,1.4,1.4,1.5c0.9,0,1.9-0.7,2.1-4.1
		C396.7,129,391,124.6,385.5,127.3z"/>
	<path class="st25" d="M406.2,124.1c0,0,2.7,8.6,6.5,10.2c3.8,1.6-14.8,16.4-18.4,15.9c-3.6-0.6-0.5,8.5,14.2-4.1
		c14.7-12.6,6.6-17.2,2.3-19C406.5,125.2,406.2,124.1,406.2,124.1z"/>
	<path class="st24" d="M373.5,161.3c-0.5,0-0.6-0.6-0.1-0.8c10.6-3.2,44-12.8,56-8.6c0,0,6.5,4.4-28.5,7.2L373.5,161.3z"/>
	<path class="st24" d="M408.2,148c-0.6,0.5-0.9,1.1-1.1,1.8c-1.7,6.8-7.3,50.2-4.1,58.3c0,0,1.2,15.3,4.4,11.8
		c3.2-3.5,9.1-11.9,1.3-20c-4.6-4.7-1.7-45.4,1.2-50.8c0.3-0.5,0.2-1.1-0.3-1.4C409.3,147.5,408.9,147.5,408.2,148z"/>
	<path class="st25" d="M422,125.5c0,0,27.9-11.2,5.2,23c0,0,21.6-5.1-0.3,20.8c0,0,22-6.5,2.8,21.8c-18.9,27.7-58.5,25.7-81.6,11
		c-1-0.6-1.9-1.4-2.6-2.2c-4.1-4.4-15.4-18.5-6.8-35.6c2.1-4.2,6.5-6.9,11.1-6.5c4.1,0.3,8.8,3.1,11.4,12.2c0,0,1.4,6.5-2.5,9.2
		c-4,2.8-9.5-1.1-8.3-5.8c0.3-1.4,1.3-2.6,3.4-3.1c2-0.4,1.4-3.4-0.6-3.2c-0.5,0.1-1,0.2-1.7,0.5c-2.5,1.1-4.4,3.4-5.1,6
		c-1.3,4.7-0.4,16.1,12.9,13c19.4-4.6,10.1-50.7-23.4-30.5s-18.9,67.9,1,49.4c0,0-28.1,40.8,46.5,21.6c0,0,33.4,42.1,54.1-30.5
		c0,0,32.8-33.9,4.3-35.3c0,0,15.2-21.2-1.9-19.7c0,0,16.9-30.7-19.8-25c-2.8,0.4-4.7,3.3-3.8,6C417,124.2,418.5,125.6,422,125.5z"
		/>
	<path class="st25" d="M401.9,159.2c0,0-10,27.8-23.4,30.4c-2.1,0.4-1.6,3.6,0.5,3.3c1.2-0.2,2.7-0.7,4.7-1.9
		c8.9-5,20.3-22.5,19.8-25.4l1.3-6.7L401.9,159.2z"/>
	<path class="st25" d="M406.2,167.7c0,0,12.2,6.3,16.2,5.9S421.3,165.9,406.2,167.7z"/>
</g>
<g>
	<rect y="130.5" class="st7" width="792" height="117.1"/>
	<path class="st17" d="M21.7,159.7c0,2.1-0.4,4-1.1,5.7c-5.3,0-9.3-0.4-12.1-1.4c0-1.8,0.2-3.6,0.7-5.5
		C12.9,158.5,17.2,159,21.7,159.7z M27.3,185.6c-3.4,2.6-7,4.2-10.9,5.1c-1.3-1.6-2.3-3.3-2.9-4.8c3.7-2.4,7.4-4.1,11.2-5.4
		C25.9,182.2,26.8,183.9,27.3,185.6z M29.6,140.2c-0.5,1.8-1.2,3.6-2.1,5.2c-4.9-0.4-9.2-1.7-12.8-4.1c0.4-1.9,1.1-3.7,1.8-5.4
		C20.5,136.4,24.8,137.8,29.6,140.2z M43.6,141.7c-2.3,12.7-4.9,24.4-8.1,35.1c0,0-1.1-0.2-3.4-0.5c-0.9-0.2-1.6-0.4-2.2-0.8
		c1.6-10.7,4.4-22.4,8.6-35.1C40.3,140.7,42,141.1,43.6,141.7z M54.5,131.5c8.6,0.2,16.1,0.5,22.5,1c0.7,2.3,1.1,7.1,1.1,14.6
		c0,1.6-0.4,2.5-0.9,2.6c-3.4,1.6-13.8,2.4-31.2,2.4c-0.4-0.4-0.5-1.2-0.5-2.4c0-1,0.1-1.8,0.3-2.4c3.9-0.4,12.4-1.1,25.6-1.8
		c0-1.5-0.1-4-0.2-7.7c-8.3-0.1-20.4-0.4-36.4-1.1c-0.2-0.9-0.2-1.8-0.2-2.6c0-1.1,0.1-1.9,0.3-2.7C41.5,131.4,48,131.4,54.5,131.5z
		 M73.8,178.9c0.2,0.5,0.3,1.2,0.3,2.3c0,1.1-0.1,1.8-0.3,2.2c-0.7,0.3-4.4,0.4-11,0.4h-1.2v0.4c0,2.2-0.1,4-0.3,5.3
		c4.2-0.2,8.4-0.4,12.7-0.6c0.4,1.6,0.6,3.3,0.6,5c-9.7,1.1-19.4,1.7-29.2,2c-0.8-1.3-1.1-3.1-1.1-5.3c3.6-0.4,7.3-0.6,11.1-0.8
		c-0.4-1.7-0.5-3.5-0.5-5.6v-0.4c-7.1,0-11.1-0.2-12-0.4c-0.2-0.6-0.3-1.4-0.3-2.4c0-0.8,0.1-1.6,0.4-2.3c3.8-0.1,7.8-0.2,12.2-0.3
		c0.1-1.4,0.3-2.7,0.6-4c0.8-0.2,1.7-0.4,2.6-0.4c1.1,0,1.9,0.2,2.6,0.4c0.1,1.5,0.2,2.8,0.4,4h1.4C67.4,178.4,71,178.6,73.8,178.9z
		 M44.3,159.1c0-1.8,0.2-3.3,0.5-4.8c9.1,0.6,18,1.4,26.6,2.5c0,1.3-0.3,2.8-0.7,4.6c-5.1,0-10.2-0.3-15.3-0.8c-1.1,2.4-2.1,4.8-3,7
		c3.2,0.2,8.6,0.5,16.2,1c0.2,0.7,0.4,1.5,0.4,2.2c0,0.8-0.2,1.6-0.4,2.5c-9.2,0-17.1-0.4-23.9-1.5c1.1-4.2,2.7-8.2,4.8-11.9
		C47.7,159.6,45.9,159.4,44.3,159.1z M79.3,169.7c-0.9,0.8-2.3,1.6-4.1,2.3c-1.8-1.8-3.3-4.3-4.5-7.3c1.2-1,2.6-1.8,4.4-2.3
		C77,165.1,78.4,167.6,79.3,169.7z"/>
	<path class="st17" d="M109.6,193.3c-2.1-0.6-3.8-1.6-5-2.8c3.3-7.7,9.1-20.1,17.2-36.8c-7.6-0.3-15-0.7-22.3-1.2
		c0-2.2,0.2-4.2,0.7-6.1c8.4,0,16.8,0.2,25,0.4c2.5-5.1,5.1-10.5,7.9-16.1c2,0.5,3.9,1.4,5.6,2.6c-2.1,4.8-4.1,9.3-6.1,13.7
		c10,0.4,20.1,1.1,30,1.8c0,2-0.2,4-0.5,5.8c-11.1,0-21.9-0.2-32.6-0.5c-4.2,8.9-8.3,17.2-12.1,24.8c3.3,1.2,7,2.6,10.9,4
		c-0.4,1.6-1,3.3-1.8,5.1c-4.1-1.1-8.1-2.4-11.8-4C113,187.2,111.3,190.3,109.6,193.3z M163,186.2c-0.6,1.7-1.8,3.1-3.5,4.3
		c-7.7-5.5-14.6-11.7-20.9-18.7c1.1-1.7,2.1-3.1,3.3-4.1C148.8,173.4,155.8,179.7,163,186.2z"/>
	<path class="st17" d="M216.2,133.8c-3.5,2.8-7.2,5.5-10.9,7.7c1.1,7.4,1.8,14.8,2.3,22.2c-1.8,0.7-3.6,1-5.4,1
		c-1.1-6.6-1.8-13.3-2.1-20.1c-2.6,1.5-5.1,2.8-7.6,4c-1.4-1.8-2.1-3.6-2.1-5.2c8.4-5.8,16.4-10.7,23.6-14.7
		C215.2,130.6,216,132.2,216.2,133.8z M222.9,162.4c0,3.8,0,7.4,0,10.9c6.4,0.3,12.8,0.6,19.4,1c0.3,0.9,0.4,1.8,0.4,2.9
		c0,0.9-0.2,1.7-0.4,2.5c-6.6,0-13.1-0.2-19.4-0.5c-0.1,4-0.2,7.9-0.3,11.6c0,1.8-0.3,3.6-0.6,5.4c-0.7,0.1-1.7,0.2-3.1,0.2
		c-1.1,0-2.1-0.2-2.9-0.4c-0.4-1.5-0.4-3-0.4-4.5c0-4.1,0-8.4,0.2-12.6c-6.3-0.3-12.5-0.6-18.6-1.1c-0.4-1-0.4-1.9-0.4-2.8
		s0.1-1.8,0.4-2.8c6.2,0.3,12.5,0.5,18.8,0.8c0.2-3.6,0.4-7.2,0.6-10.7c0.9-0.1,1.9-0.2,3.1-0.2
		C220.8,162.1,221.8,162.2,222.9,162.4z M248.4,144.2c-6,1.8-11.8,3-17.4,3.8c0,2.7,0.1,5.4,0.3,8c3.3,0,7-0.1,10.8-0.3
		c0.3,0.7,0.4,1.5,0.4,2.3c0,1.1-0.1,2-0.1,2.6c-1.3,0.5-4,0.8-8,0.8c-4.4,0-7.3-0.1-8.5-0.4c-0.4-4.1-0.5-8.2-0.7-12.2
		c-3.2,0.4-6.3,0.4-9.4,0.4c-0.4-1.6-0.5-3.3-0.5-5c3.2-0.7,6.4-1.3,9.7-1.9c-0.2-3.9-0.2-7.7-0.2-11.4c1.1-0.2,2-0.4,2.7-0.4
		c1.1,0,2,0.1,2.9,0.2c0.1,3.6,0.2,7.1,0.4,10.6c5.6-0.9,11.4-1.7,17.3-2.2C248.2,140.7,248.4,142.4,248.4,144.2z"/>
	<path class="st17" d="M510.1,139.6v2.6c0,1.4-0.2,2.5-0.4,3.3c-6.9,0-13.7-0.1-20.6-0.3c0,2.6,0.1,5.3,0.2,7.7
		c5.2,0.1,9.1,0.2,11.6,0.3c0.1,0.7,0.2,1.5,0.2,2.4v2.5c-1.1,0.5-5,0.8-11.7,0.8v6.5c4-0.1,8.2-0.2,12.4-0.2
		c0.1,0.7,0.2,1.6,0.2,2.5v2.8c-10.5,0.9-20.8,1.2-31,1.2c-0.4-1.8-0.4-3.6-0.4-5.5c4-0.3,8.1-0.4,12.3-0.6
		c-0.2-2.2-0.4-4.4-0.4-6.6h-0.9c-7.2,0-12.3-0.2-15.4-0.7c-0.3-0.8-0.4-1.7-0.4-2.6s0-1.8,0.2-2.6c4.2,0,9.4-0.1,15.8-0.1h0.4
		c-0.1-2.6-0.2-5.3-0.2-7.9c-7.9-0.1-15.9-0.3-23.9-0.6c-0.3-0.7-0.4-1.8-0.4-3.1c0-1,0.3-1.9,0.8-2.9
		C475.6,138.8,492.8,139.2,510.1,139.6z M489.1,174.6c-0.7,1.4-1.3,2.8-1.9,4.1c6.5-0.2,13-0.4,19.6-0.6c0.2,0.9,0.4,1.8,0.4,2.7
		v2.9c-7.7,0.5-15.4,0.9-23.1,1.2c-0.4,0.7-0.7,1.4-1.1,2.1c-1.1,2.1-2.1,3.9-2.8,5.5c-0.6,1.1-1.2,2-1.8,3.1
		c-0.4,1.1-1.2,2.3-2.4,3.8c-2-0.7-3.8-1.6-5.2-2.8c1.9-4,3.8-7.7,5.7-11.4c-5.2,0.3-10.3,0.4-15.4,0.5c-0.4-1.9-0.5-4-0.5-5.9
		c6.4-0.4,12.8-0.7,19.3-1c1.1-2.1,2.3-4.2,3.5-6.3C485.7,173,487.5,173.6,489.1,174.6z M474.7,135.1c-1.8,1.1-3.7,1.7-5.5,1.8
		c-1.9-2.5-3-5.5-3.3-9.2c1.4-0.6,3.2-1.1,5.2-1.4C472.7,128.3,474,131.3,474.7,135.1z M503.2,128.5c-0.5,3.3-1.6,5.9-3,7.8
		c-1.4,0-3.3-0.5-5.4-1.6c0.4-2.8,1.4-5.5,2.8-8.1C499.4,127.1,501.2,127.7,503.2,128.5z M507.8,193.8c-0.8,1.8-1.9,3.3-3.3,4.6
		c-3.2-1.6-6-3.5-8.4-5.7c0.9-1.8,1.8-3.3,2.9-4.6C501.9,189.5,504.9,191.4,507.8,193.8z"/>
	<path class="st17" d="M568,149c0-5.1,0.1-11,0.3-17.5c1.1-0.2,2.3-0.4,3.5-0.4c1.1,0,2.1,0.2,3.2,0.4c0,7.1,0.1,13,0.1,17.8
		c8.6,0.3,17.2,0.6,25.6,1.1v2.7c0,1.4-0.2,2.5-0.4,3.2c-9.2,0-17.6,0-25.2-0.2v6.9c0.1,4,0.2,15.5,0.2,34.5c-0.6,0.4-1.6,0.5-3,0.5
		c-1.6,0-2.6-0.2-3.2-0.4c-0.6-6.2-1-14-1.1-23.5c-9.3,5.6-18.2,10.9-26.6,15.8c-1.4-1.1-2.6-2.5-3.3-4c9.3-7,19.2-13.6,29.7-19.9
		v-10.1c-11.5-0.2-21.5-0.6-29.7-1.2c-0.3-0.4-0.4-1.5-0.4-3.1c0-1.1,0.2-2,0.5-3.1C548.3,148.5,558.2,148.7,568,149z M600.4,181.1
		c-0.5,1.6-1.3,3.2-2.5,4.8c-4.9-1.3-10.4-3.6-16.5-6.9c0.4-1.9,1.1-3.7,2.2-5.4C589.6,175.4,595.1,177.9,600.4,181.1z M600.7,137.3
		c-0.5,1.8-1.3,3.4-2.4,5.1c-4.8-1.1-8.7-2.8-11.9-4.9c0.7-2.2,1.5-4,2.4-5.6C592.9,133.6,596.8,135.4,600.7,137.3z"/>
	<path class="st17" d="M636.9,147.5c0,5.6-0.4,11.8-1,18.7c-0.7,0.3-1.7,0.4-3,0.4c-1.3,0-2.3-0.2-2.8-0.6c0-8.3,0.3-14.5,1-18.7
		c0.9-0.1,1.8-0.2,3-0.2C635.1,146.9,636.1,147.1,636.9,147.5z M646.5,140.6c-1.1,0.9-2.6,1.8-4.7,2.6c-2.6-2.7-4.8-6.2-6.8-10.6
		c1.3-1.1,2.9-1.8,4.8-2.5C643,134,645.2,137.5,646.5,140.6z M674.2,162.8c-1.9,5.2-4.6,10.1-7.8,14.9c0.2,0.6,0.4,1.2,0.5,1.8
		c6.3-0.2,12.9-0.4,19.7-0.6c0.2,0.7,0.4,1.6,0.4,2.6c0,1.3-0.1,2.3-0.2,2.8c-6.2,0.4-12.4,0.7-18.6,0.9c0.8,4.3,1.2,8.4,1.2,12.4
		c-1,0.4-3,0.5-6.1,0.5c-2.3,0-4.5-0.4-6.5-0.9c0-1.4,0.1-2.8,0.4-4h6.6c-0.7-2.6-1.2-5.1-1.8-7.7c-8.4,0.4-16.9,0.6-25.4,0.6
		c-0.3-1.7-0.4-3.4-0.4-5.2c7.7-0.4,15.8-0.8,24.6-1.1c-0.3-1.1-0.4-2-0.6-3.1c1.6-2.9,3.3-6,5.2-9.2c-7.4-0.7-14.7-1.7-22-2.9
		c0-1.8,0.2-3.5,0.7-5.1C653.9,159.8,664,160.9,674.2,162.8z M690.6,145.8c0.7,6.1,1.1,11.9,1.1,17.4c-0.5,0.3-1.4,0.4-2.5,0.4
		c-0.8,0-1.8,0-2.9-0.2c-0.5-2.6-1.1-6.6-1.5-12.2c-14.3,0-28.7-0.1-43.1-0.3c-0.3-0.8-0.4-1.8-0.4-2.8c0-0.8,0-1.6,0.2-2.5
		C658.1,145.6,674.5,145.7,690.6,145.8z M664.7,139c-1.6,0.9-3.2,1.4-4.8,1.6c-1.9-2.7-3-6.1-3.3-10.1c1.2-0.6,2.8-1.1,4.7-1.4
		C662.8,131.4,664,134.6,664.7,139z M686.1,130.8c-1.8,5.5-3.2,9.2-4.3,11.4c-2.2,0-4-0.4-5.5-1.3c1.1-4.4,2.4-8.4,4.1-11.7
		C682.7,129.3,684.5,129.9,686.1,130.8z"/>
	<path class="st17" d="M727.7,139c0.4,4,0.7,7.9,1,12h0.4c3.7,0,6.2,0.2,7.7,0.5c0.1,0.7,0.2,1.4,0.2,2.2v2.6
		c-0.6,0.4-3.3,0.5-8,0.5c0.1,2.9,0.2,5.8,0.4,8.8c3.2,1.5,6.2,3.1,9.2,4.8c-0.5,1.6-1.2,3.2-2.3,4.8c-2.6-0.7-4.8-1.5-6.8-2.6
		c0.1,4.6,0.2,9.1,0.2,13.6c-0.7,0.3-1.7,0.4-2.8,0.4c-1.5,0-2.5,0-2.9-0.2c-0.4-4.8-0.7-9.4-0.9-14c-2.3,1.8-5,3.5-8.1,5.3
		c-1.5-1.5-2.6-3.1-3.3-4.7c3.2-2.6,6.9-5.4,11-8.1c-0.2-2.8-0.3-5.5-0.4-8.2c-3.7-0.1-6.5-0.3-8.4-0.5c-0.3-0.7-0.4-1.6-0.4-2.6
		c0-0.9,0-1.7,0.2-2.4c2.5,0,5.4-0.1,8.5-0.2c-0.2-4-0.2-7.9-0.2-11.8c0.4-0.2,1.2-0.4,2.8-0.5C726.2,138.7,727.1,138.8,727.7,139z
		 M754.9,152.6c-2.4,4.6-5.2,9.4-8.4,14.5c-1.8-0.7-3.5-1.7-4.9-3.1c3-5.3,5.8-10,8.6-14.1C751.9,150.6,753.5,151.5,754.9,152.6z
		 M766.4,139.2c5.5,0.3,11.1,0.6,16.5,1c0,1.8-0.2,3.5-0.4,5.2c-13.6,0-27.2-0.5-40.6-1.7c0-1.8,0.1-3.6,0.4-5.4
		c5.8,0.1,11.7,0.3,17.5,0.5c-0.7-2.6-1-5.5-1-8.7c2-0.4,4-0.6,6-0.6C765.7,133,766.2,136.3,766.4,139.2z M776.7,172.1
		c-2.5,3.5-5.6,7.2-9.3,11.2c3.5,2.8,7,5.6,10.6,8.4c-0.6,1.6-1.8,3.1-3.5,4.5c-4.1-2.6-8-5.5-11.6-8.3c-3,2.8-6.2,5.8-9.7,9
		c-1.8-1-3-2.2-3.6-3.8c2.6-3.3,5.4-6.3,8.1-9.3c-3.4-2.8-6.7-5.7-9.8-8.8c1.1-1.8,2.1-3.2,3.3-4.2c3.7,2.7,7.3,5.5,11,8.3
		c3.5-3.6,7.1-7,10.8-10.4C774.4,169.6,775.6,170.8,776.7,172.1z M783.7,159.7c-0.7,1.4-1.7,2.9-2.9,4.4c-5.2-2.5-9.8-5.2-13.7-8.3
		c0.8-1.8,1.7-3.5,2.7-5.1C774.4,153.4,779.1,156.4,783.7,159.7z"/>
</g>
<g>
</g>
<g>
</g>
<g>
</g>
<g>
</g>
<g>
</g>
<g>
</g>
</svg>
