<?xml version="1.0" encoding="utf-8"?>
<!-- Generator: Adobe Illustrator 18.1.1, SVG Export Plug-In . SVG Version: 6.00 Build 0)  -->
<svg version="1.1" id="Layer_1" xmlns="http://www.w3.org/2000/svg" xmlns:xlink="http://www.w3.org/1999/xlink" x="0px" y="0px"
	 width="324px" height="324px" viewBox="0 0 324 324" style="enable-background:new 0 0 324 324;" xml:space="preserve">
<style type="text/css">
	.st0{fill:#FBE748;stroke:#603913;stroke-width:7;stroke-miterlimit:10;}
	.st1{fill:#FBF8D0;stroke:#603913;stroke-width:7;stroke-miterlimit:10;}
	.st2{fill:#3C2415;stroke:#603913;stroke-width:7;stroke-miterlimit:10;}
	.st3{fill:none;stroke:#603913;stroke-width:7;stroke-miterlimit:10;}
	.st4{fill:#EF88AC;stroke:#603913;stroke-width:7;stroke-miterlimit:10;}
	.st5{fill:#603913;}
</style>
<g>
	<polygon class="st0" points="193.5,160 91.1,32.7 19.5,86.9 125.8,215.2 	"/>
	<g>
		<path class="st1" d="M190.5,161.7l-63.2,51.5c-2.1,1.7-1.5,5,1,6l57.9,21.9l25.1-20.8l-14.2-56.5
			C196.4,161,192.8,159.8,190.5,161.7z"/>
		<polygon class="st2" points="211.3,220.4 186.2,241.2 221.4,257.3 		"/>
	</g>
	<line class="st3" x1="174.6" y1="175.4" x2="72.4" y2="46.8"/>
	<line class="st3" x1="143.6" y1="199.1" x2="41.4" y2="70.6"/>
	<path class="st4" d="M91.1,32.7L19.5,86.9c0,0-38.2-32.1,7-63.8C70.7-7.9,91.1,32.7,91.1,32.7z"/>
</g>
<g>
	<g>
		<path class="st5" d="M219.8,259.5c-2.3,9.2-2.4,20.6,9.1,22.8c6.5,1.3,13.8,0.1,20.3-0.4c7.3-0.6,14.6-1.5,21.8-2.6
			c-0.6-1.5-1.3-3-1.9-4.6c-10.5,4.8-21.1,9.7-31.6,14.5c-2.2,1-1.2,4.9,1.3,4.7c7.6-0.7,15.2-1.4,22.7-2.1
			c3.8-0.4,7.6-0.7,11.4-1.1c2.8-0.3,7.3-1.5,9.3,1.1c0-1.2,0-2.4,0-3.5c-9.2,8.4-18.3,16.7-27.5,25.1c-1.6,1.4-0.4,4.4,1.8,4.3
			c25.5-1.4,51-2.7,76.5-4.1c3.2-0.2,3.2-5.2,0-5c-25.5,1.4-51,2.7-76.5,4.1c0.6,1.4,1.2,2.8,1.8,4.3c9.2-8.4,18.3-16.7,27.5-25.1
			c1.1-1,0.8-2.5,0-3.5c-4-5.2-13.2-2.5-18.5-2c-9.5,0.9-18.9,1.8-28.4,2.7c0.4,1.6,0.8,3.1,1.3,4.7c10.5-4.8,21.1-9.7,31.6-14.5
			c2.8-1.3,0.6-5-1.9-4.6c-10.6,1.6-21.3,2.7-32.1,3.1c-5,0.2-11.6,0.8-13.7-4.9c-1.4-3.7-0.2-8.3,0.7-11.9
			C225.4,257.8,220.5,256.4,219.8,259.5L219.8,259.5z"/>
	</g>
</g>
<g>
</g>
<g>
</g>
<g>
</g>
<g>
</g>
<g>
</g>
<g>
</g>
</svg>
